<svg width="228" height="56" fill="none" xmlns="http://www.w3.org/2000/svg"><path d="M55.426 37.338c-2.739 0-5.01-.901-6.812-2.704-1.803-1.82-2.704-4.065-2.704-6.734 0-2.67.901-4.905 2.704-6.708 1.803-1.82 4.073-2.73 6.812-2.73 1.647 0 3.163.39 4.55 1.17 1.404.78 2.496 1.837 3.276 3.172l-2.6 1.508c-.485-.901-1.196-1.612-2.132-2.132-.919-.537-1.95-.806-3.094-.806-1.941 0-3.519.615-4.732 1.846-1.196 1.23-1.794 2.79-1.794 4.68 0 1.89.598 3.45 1.794 4.68 1.213 1.23 2.79 1.846 4.732 1.846 1.144 0 2.184-.26 3.12-.78.936-.537 1.638-1.257 2.106-2.158l2.6 1.482c-.763 1.335-1.846 2.4-3.25 3.198-1.387.78-2.912 1.17-4.576 1.17Zm13.063-11.154c.71-1.612 2.045-2.418 4.004-2.418v3.042c-1.075-.07-2.01.19-2.808.78-.797.572-1.196 1.525-1.196 2.86V37h-2.808V24h2.808v2.184ZM83.584 24h2.99l-4.992 13.416c-1.248 3.363-3.363 4.957-6.344 4.784v-2.626c.884.052 1.594-.139 2.132-.572.537-.416.979-1.075 1.326-1.976l.13-.26L73.314 24h3.068l3.874 9.438L83.584 24Zm12.103-.338c1.786 0 3.311.667 4.576 2.002 1.266 1.317 1.898 2.93 1.898 4.836 0 1.924-.632 3.545-1.898 4.862-1.265 1.317-2.79 1.976-4.576 1.976-1.976 0-3.492-.728-4.55-2.184V42.2H88.33V24h2.808v1.872c1.058-1.473 2.574-2.21 4.55-2.21Zm-3.38 9.828c.78.78 1.76 1.17 2.938 1.17 1.18 0 2.158-.39 2.938-1.17.78-.797 1.17-1.794 1.17-2.99 0-1.196-.39-2.184-1.17-2.964-.78-.797-1.759-1.196-2.938-1.196-1.178 0-2.158.399-2.938 1.196-.78.78-1.17 1.768-1.17 2.964s.39 2.193 1.17 2.99Zm19.399-6.786h-3.224v6.24c0 .537.122.927.364 1.17.243.225.598.355 1.066.39.486.017 1.084.009 1.794-.026V37c-2.149.26-3.692.078-4.628-.546-.936-.641-1.404-1.811-1.404-3.51v-6.24h-2.392V24h2.392v-2.808l2.808-.832V24h3.224v2.704Zm8.15 10.634c-1.907 0-3.527-.659-4.862-1.976s-2.002-2.938-2.002-4.862.667-3.545 2.002-4.862c1.335-1.317 2.955-1.976 4.862-1.976 1.924 0 3.545.659 4.862 1.976 1.335 1.317 2.002 2.938 2.002 4.862s-.667 3.545-2.002 4.862c-1.317 1.317-2.938 1.976-4.862 1.976Zm-2.886-3.9c.78.78 1.742 1.17 2.886 1.17 1.144 0 2.106-.39 2.886-1.17.78-.78 1.17-1.76 1.17-2.938 0-1.179-.39-2.158-1.17-2.938-.78-.78-1.742-1.17-2.886-1.17-1.144 0-2.106.39-2.886 1.17-.78.78-1.17 1.76-1.17 2.938 0 1.179.39 2.158 1.17 2.938Z" fill="#32439D"/><path d="M136.149 18.8c1.716 0 3.146.572 4.29 1.716 1.161 1.144 1.742 2.565 1.742 4.264 0 1.681-.581 3.103-1.742 4.264-1.144 1.144-2.574 1.716-4.29 1.716h-3.718V37h-2.99V18.8h6.708Zm0 9.152c.884 0 1.612-.295 2.184-.884.572-.607.858-1.37.858-2.288 0-.919-.286-1.673-.858-2.262-.572-.607-1.3-.91-2.184-.91h-3.718v6.344h3.718Zm13.668 9.386c-1.907 0-3.527-.659-4.862-1.976s-2.002-2.938-2.002-4.862.667-3.545 2.002-4.862c1.335-1.317 2.955-1.976 4.862-1.976 1.924 0 3.545.659 4.862 1.976 1.335 1.317 2.002 2.938 2.002 4.862s-.667 3.545-2.002 4.862c-1.317 1.317-2.938 1.976-4.862 1.976Zm-2.886-3.9c.78.78 1.742 1.17 2.886 1.17 1.144 0 2.106-.39 2.886-1.17.78-.78 1.17-1.76 1.17-2.938 0-1.179-.39-2.158-1.17-2.938-.78-.78-1.742-1.17-2.886-1.17-1.144 0-2.106.39-2.886 1.17-.78.78-1.17 1.76-1.17 2.938 0 1.179.39 2.158 1.17 2.938Zm15.097-7.254c.711-1.612 2.045-2.418 4.004-2.418v3.042c-1.075-.07-2.011.19-2.808.78-.797.572-1.196 1.525-1.196 2.86V37h-2.808V24h2.808v2.184Zm13.663.52h-3.224v6.24c0 .537.121.927.364 1.17.242.225.598.355 1.066.39.485.017 1.083.009 1.794-.026V37c-2.15.26-3.692.078-4.628-.546-.936-.641-1.404-1.811-1.404-3.51v-6.24h-2.392V24h2.392v-2.808l2.808-.832V24h3.224v2.704ZM188 24h2.808v13H188v-1.872c-1.057 1.473-2.574 2.21-4.55 2.21-1.785 0-3.31-.659-4.576-1.976-1.265-1.335-1.898-2.955-1.898-4.862 0-1.924.633-3.545 1.898-4.862 1.266-1.317 2.791-1.976 4.576-1.976 1.976 0 3.493.728 4.55 2.184V24Zm-7.046 9.49c.78.78 1.76 1.17 2.938 1.17 1.179 0 2.158-.39 2.938-1.17.78-.797 1.17-1.794 1.17-2.99 0-1.196-.39-2.184-1.17-2.964-.78-.797-1.759-1.196-2.938-1.196-1.178 0-2.158.399-2.938 1.196-.78.78-1.17 1.768-1.17 2.964s.39 2.193 1.17 2.99ZM194.081 37V18.02h2.808V37h-2.808Z" fill="#1271D9"/><path d="M32 38 16.5 12 1 38" stroke="#32439D" stroke-width="2" stroke-linecap="round"/><path d="M32 38 16.5 12 1 38" stroke="url(#a)" stroke-opacity=".7" stroke-width="2" stroke-linecap="round"/><path d="m25 38-8.5-13L8 38" stroke="#32439D" stroke-width="2" stroke-linecap="round"/><path d="m25 38-8.5-13L8 38" stroke="url(#b)" stroke-opacity=".7" stroke-width="2" stroke-linecap="round"/><defs><linearGradient id="a" x1="12.858" y1="25" x2="27.172" y2="25" gradientUnits="userSpaceOnUse"><stop offset=".033" stop-color="#1271D9" stop-opacity="0"/><stop offset="1" stop-color="#074DFF"/></linearGradient><linearGradient id="b" x1="14.503" y1="31.5" x2="22.352" y2="31.5" gradientUnits="userSpaceOnUse"><stop offset=".033" stop-color="#1271D9" stop-opacity="0"/><stop offset="1" stop-color="#074DFF"/></linearGradient></defs></svg>