<svg width="86" height="149" fill="none" xmlns="http://www.w3.org/2000/svg"><path transform="rotate(-36.79 .701 67.81)" stroke="url(#a)" stroke-opacity=".4" d="M.701 67.81h2.426v2.535H.701z"/><path transform="rotate(-36.79 10.44 80.832)" stroke="url(#b)" stroke-opacity=".4" d="M10.439 80.832h2.426v2.535h-2.426z"/><path transform="rotate(-36.79 20.177 93.853)" stroke="url(#c)" stroke-opacity=".4" d="M20.177 93.853h2.426v2.535h-2.426z"/><path transform="rotate(-36.79 29.916 106.875)" stroke="url(#d)" stroke-opacity=".4" d="M29.916 106.875h2.426v2.535h-2.426z"/><path transform="rotate(-36.79 39.654 119.897)" stroke="url(#e)" stroke-opacity=".4" d="M39.654 119.897h2.426v2.535h-2.426z"/><path transform="rotate(-36.79 49.392 132.918)" stroke="url(#f)" stroke-opacity=".4" d="M49.392 132.918h2.426v2.535h-2.426z"/><path transform="rotate(-36.79 59.13 145.94)" stroke="url(#g)" stroke-opacity=".4" d="M59.13 145.94h2.426v2.535H59.13z"/><path transform="rotate(-36.79 53.378 28.416)" stroke="url(#h)" stroke-opacity=".4" d="M53.378 28.416h2.426v2.535h-2.426z"/><path transform="rotate(-36.79 63.117 41.438)" stroke="url(#i)" stroke-opacity=".4" d="M63.117 41.438h2.426v2.535h-2.426z"/><path transform="rotate(-36.79 72.855 54.46)" stroke="url(#j)" stroke-opacity=".4" d="M72.855 54.459h2.426v2.535h-2.426z"/><path transform="rotate(-36.79 82.593 67.48)" stroke="url(#k)" stroke-opacity=".4" d="M82.593 67.481h2.426v2.535h-2.426z"/><path transform="rotate(-36.79 18.26 54.679)" stroke="url(#l)" stroke-opacity=".4" d="M18.26 54.679h2.426v2.535H18.26z"/><path transform="rotate(-36.79 27.998 67.7)" stroke="url(#m)" stroke-opacity=".4" d="M27.998 67.7h2.426v2.535h-2.426z"/><path transform="rotate(-36.79 37.736 80.722)" stroke="url(#n)" stroke-opacity=".4" d="M37.736 80.722h2.426v2.535h-2.426z"/><path transform="rotate(-36.79 47.475 93.744)" stroke="url(#o)" stroke-opacity=".4" d="M47.475 93.744h2.426v2.535h-2.426z"/><path transform="rotate(-36.79 57.213 106.765)" stroke="url(#p)" stroke-opacity=".4" d="M57.213 106.765h2.426v2.535h-2.426z"/><path transform="rotate(-36.79 66.951 119.787)" stroke="url(#q)" stroke-opacity=".4" d="M66.951 119.787h2.426v2.535h-2.426z"/><path transform="rotate(-36.79 76.69 132.809)" stroke="url(#r)" stroke-opacity=".4" d="M76.689 132.809h2.426v2.535h-2.426z"/><path transform="rotate(-36.79 70.937 15.284)" stroke="url(#s)" stroke-opacity=".4" d="M70.937 15.284h2.426v2.535h-2.426z"/><path transform="rotate(-36.79 80.676 28.306)" stroke="url(#t)" stroke-opacity=".4" d="M80.676 28.306h2.426v2.535h-2.426z"/><path transform="rotate(-36.79 35.82 41.547)" stroke="url(#u)" stroke-opacity=".4" d="M35.819 41.547h2.426v2.535h-2.426z"/><path transform="rotate(-36.79 45.557 54.569)" stroke="url(#v)" stroke-opacity=".4" d="M45.557 54.569h2.426v2.535h-2.426z"/><path transform="rotate(-36.79 55.296 67.59)" stroke="url(#w)" stroke-opacity=".4" d="M55.296 67.591h2.426v2.535h-2.426z"/><path transform="rotate(-36.79 65.034 80.612)" stroke="url(#x)" stroke-opacity=".4" d="M65.034 80.612h2.426v2.535h-2.426z"/><path transform="rotate(-36.79 74.772 93.634)" stroke="url(#y)" stroke-opacity=".4" d="M74.772 93.634h2.426v2.535h-2.426z"/><path transform="rotate(-36.79 84.51 106.655)" stroke="url(#z)" stroke-opacity=".4" d="M84.51 106.655h2.426v2.535H84.51z"/><defs><linearGradient id="a" x1=".001" y1="67.982" x2="4.18" y2="68.599" gradientUnits="userSpaceOnUse"><stop offset=".033" stop-color="#fff"/><stop offset="1" stop-color="#fff"/></linearGradient><linearGradient id="b" x1="9.739" y1="81.004" x2="13.918" y2="81.621" gradientUnits="userSpaceOnUse"><stop offset=".033" stop-color="#fff"/><stop offset="1" stop-color="#fff"/></linearGradient><linearGradient id="c" x1="19.477" y1="94.025" x2="23.656" y2="94.642" gradientUnits="userSpaceOnUse"><stop offset=".033" stop-color="#fff"/><stop offset="1" stop-color="#fff"/></linearGradient><linearGradient id="d" x1="29.216" y1="107.047" x2="33.395" y2="107.664" gradientUnits="userSpaceOnUse"><stop offset=".033" stop-color="#fff"/><stop offset="1" stop-color="#fff"/></linearGradient><linearGradient id="e" x1="38.954" y1="120.069" x2="43.133" y2="120.686" gradientUnits="userSpaceOnUse"><stop offset=".033" stop-color="#fff"/><stop offset="1" stop-color="#fff"/></linearGradient><linearGradient id="f" x1="48.692" y1="133.09" x2="52.871" y2="133.707" gradientUnits="userSpaceOnUse"><stop offset=".033" stop-color="#fff"/><stop offset="1" stop-color="#fff"/></linearGradient><linearGradient id="g" x1="58.43" y1="146.112" x2="62.609" y2="146.729" gradientUnits="userSpaceOnUse"><stop offset=".033" stop-color="#fff"/><stop offset="1" stop-color="#fff"/></linearGradient><linearGradient id="h" x1="52.678" y1="28.588" x2="56.857" y2="29.205" gradientUnits="userSpaceOnUse"><stop offset=".033" stop-color="#fff"/><stop offset="1" stop-color="#fff"/></linearGradient><linearGradient id="i" x1="62.417" y1="41.61" x2="66.596" y2="42.227" gradientUnits="userSpaceOnUse"><stop offset=".033" stop-color="#fff"/><stop offset="1" stop-color="#fff"/></linearGradient><linearGradient id="j" x1="72.155" y1="54.631" x2="76.334" y2="55.248" gradientUnits="userSpaceOnUse"><stop offset=".033" stop-color="#fff"/><stop offset="1" stop-color="#fff"/></linearGradient><linearGradient id="k" x1="81.893" y1="67.653" x2="86.072" y2="68.27" gradientUnits="userSpaceOnUse"><stop offset=".033" stop-color="#fff"/><stop offset="1" stop-color="#fff"/></linearGradient><linearGradient id="l" x1="17.56" y1="54.851" x2="21.739" y2="55.468" gradientUnits="userSpaceOnUse"><stop offset=".033" stop-color="#fff"/><stop offset="1" stop-color="#fff"/></linearGradient><linearGradient id="m" x1="27.299" y1="67.872" x2="31.477" y2="68.489" gradientUnits="userSpaceOnUse"><stop offset=".033" stop-color="#fff"/><stop offset="1" stop-color="#fff"/></linearGradient><linearGradient id="n" x1="37.037" y1="80.894" x2="41.215" y2="81.511" gradientUnits="userSpaceOnUse"><stop offset=".033" stop-color="#fff"/><stop offset="1" stop-color="#fff"/></linearGradient><linearGradient id="o" x1="46.775" y1="93.916" x2="50.954" y2="94.533" gradientUnits="userSpaceOnUse"><stop offset=".033" stop-color="#fff"/><stop offset="1" stop-color="#fff"/></linearGradient><linearGradient id="p" x1="56.513" y1="106.938" x2="60.692" y2="107.554" gradientUnits="userSpaceOnUse"><stop offset=".033" stop-color="#fff"/><stop offset="1" stop-color="#fff"/></linearGradient><linearGradient id="q" x1="66.251" y1="119.959" x2="70.43" y2="120.576" gradientUnits="userSpaceOnUse"><stop offset=".033" stop-color="#fff"/><stop offset="1" stop-color="#fff"/></linearGradient><linearGradient id="r" x1="75.989" y1="132.981" x2="80.168" y2="133.598" gradientUnits="userSpaceOnUse"><stop offset=".033" stop-color="#fff"/><stop offset="1" stop-color="#fff"/></linearGradient><linearGradient id="s" x1="70.237" y1="15.456" x2="74.416" y2="16.073" gradientUnits="userSpaceOnUse"><stop offset=".033" stop-color="#fff"/><stop offset="1" stop-color="#fff"/></linearGradient><linearGradient id="t" x1="79.976" y1="28.478" x2="84.155" y2="29.095" gradientUnits="userSpaceOnUse"><stop offset=".033" stop-color="#fff"/><stop offset="1" stop-color="#fff"/></linearGradient><linearGradient id="u" x1="35.119" y1="41.719" x2="39.298" y2="42.336" gradientUnits="userSpaceOnUse"><stop offset=".033" stop-color="#fff"/><stop offset="1" stop-color="#fff"/></linearGradient><linearGradient id="v" x1="44.858" y1="54.741" x2="49.036" y2="55.358" gradientUnits="userSpaceOnUse"><stop offset=".033" stop-color="#fff"/><stop offset="1" stop-color="#fff"/></linearGradient><linearGradient id="w" x1="54.596" y1="67.763" x2="58.775" y2="68.38" gradientUnits="userSpaceOnUse"><stop offset=".033" stop-color="#fff"/><stop offset="1" stop-color="#fff"/></linearGradient><linearGradient id="x" x1="64.334" y1="80.784" x2="68.513" y2="81.401" gradientUnits="userSpaceOnUse"><stop offset=".033" stop-color="#fff"/><stop offset="1" stop-color="#fff"/></linearGradient><linearGradient id="y" x1="74.072" y1="93.806" x2="78.251" y2="94.423" gradientUnits="userSpaceOnUse"><stop offset=".033" stop-color="#fff"/><stop offset="1" stop-color="#fff"/></linearGradient><linearGradient id="z" x1="83.81" y1="106.828" x2="87.989" y2="107.444" gradientUnits="userSpaceOnUse"><stop offset=".033" stop-color="#fff"/><stop offset="1" stop-color="#fff"/></linearGradient></defs></svg>