<svg width="247" height="240" fill="none" xmlns="http://www.w3.org/2000/svg"><path transform="rotate(-34.027 .695 105.124)" stroke="url(#a)" stroke-opacity=".9" d="M.695 105.124H5.38v4.685H.695z"/><path transform="rotate(-34.027 15.329 126.799)" stroke="url(#b)" stroke-opacity=".9" d="M15.329 126.799h4.685v4.685h-4.685z"/><path transform="rotate(-34.027 29.963 148.474)" stroke="url(#c)" stroke-opacity=".9" d="M29.963 148.474h4.685v4.685h-4.685z"/><path transform="rotate(-34.027 44.599 170.149)" stroke="url(#d)" stroke-opacity=".9" d="M44.599 170.149h4.685v4.685h-4.685z"/><path transform="rotate(-34.027 59.233 191.824)" stroke="url(#e)" stroke-opacity=".9" d="M59.233 191.824h4.685v4.685h-4.685z"/><path transform="rotate(-34.027 73.868 213.498)" stroke="url(#f)" stroke-opacity=".9" d="M73.868 213.498h4.685v4.685h-4.685z"/><path transform="rotate(-34.027 88.503 235.173)" stroke="url(#g)" stroke-opacity=".9" d="M88.503 235.173h4.685v4.685h-4.685z"/><path transform="rotate(-34.027 91.163 44.04)" stroke="url(#h)" stroke-opacity=".9" d="M91.163 44.039h4.685v4.685h-4.685z"/><path transform="rotate(-34.027 105.797 65.714)" stroke="url(#i)" stroke-opacity=".9" d="M105.797 65.714h4.685v4.685h-4.685z"/><path transform="rotate(-34.027 120.433 87.388)" stroke="url(#j)" stroke-opacity=".9" d="M120.433 87.388h4.685v4.685h-4.685z"/><path transform="rotate(-34.027 135.068 109.064)" stroke="url(#k)" stroke-opacity=".9" d="M135.068 109.064h4.685v4.685h-4.685z"/><path transform="rotate(-34.027 149.702 130.739)" stroke="url(#l)" stroke-opacity=".9" d="M149.702 130.739h4.685v4.685h-4.685z"/><path transform="rotate(-34.027 163.643 152.279)" fill="url(#m)" fill-opacity=".9" d="M163.643 152.279h5.685v5.685h-5.685z"/><path transform="rotate(-34.027 164.337 152.414)" stroke="url(#n)" stroke-opacity=".9" d="M164.337 152.414h4.685v4.685h-4.685z"/><path transform="rotate(-34.027 178.972 174.089)" stroke="url(#o)" stroke-opacity=".9" d="M178.972 174.089h4.685v4.685h-4.685z"/><path transform="rotate(-34.027 30.85 84.763)" stroke="url(#p)" stroke-opacity=".9" d="M30.85 84.763h4.685v4.685H30.85z"/><path transform="rotate(-34.027 45.485 106.437)" stroke="url(#q)" stroke-opacity=".9" d="M45.485 106.437h4.685v4.685h-4.685z"/><path transform="rotate(-34.027 60.12 128.112)" stroke="url(#r)" stroke-opacity=".9" d="M60.12 128.112h4.685v4.685H60.12z"/><path transform="rotate(-34.027 74.755 149.787)" stroke="url(#s)" stroke-opacity=".9" d="M74.755 149.787h4.685v4.685h-4.685z"/><path transform="rotate(-34.027 88.695 171.327)" fill="url(#t)" fill-opacity=".9" d="M88.695 171.327h5.685v5.685h-5.685z"/><path transform="rotate(-34.027 89.39 171.462)" stroke="url(#u)" stroke-opacity=".9" d="M89.389 171.462h4.685v4.685h-4.685z"/><path transform="rotate(-34.027 104.025 193.137)" stroke="url(#v)" stroke-opacity=".9" d="M104.025 193.137h4.685v4.685h-4.685z"/><path transform="rotate(-34.027 118.66 214.812)" stroke="url(#w)" stroke-opacity=".9" d="M118.66 214.812h4.685v4.685h-4.685z"/><path transform="rotate(-34.027 121.319 23.678)" stroke="url(#x)" stroke-opacity=".9" d="M121.319 23.678h4.685v4.685h-4.685z"/><path transform="rotate(-34.027 135.954 45.352)" stroke="url(#y)" stroke-opacity=".9" d="M135.954 45.352h4.685v4.685h-4.685z"/><path transform="rotate(-34.027 150.589 67.027)" stroke="url(#z)" stroke-opacity=".9" d="M150.589 67.027h4.685v4.685h-4.685z"/><path transform="rotate(-34.027 165.224 88.702)" stroke="url(#A)" stroke-opacity=".9" d="M165.224 88.702h4.685v4.685h-4.685z"/><path transform="rotate(-34.027 179.859 110.377)" stroke="url(#B)" stroke-opacity=".9" d="M179.859 110.377h4.685v4.685h-4.685z"/><path transform="rotate(-34.027 194.494 132.052)" stroke="url(#C)" stroke-opacity=".9" d="M194.494 132.052h4.685v4.685h-4.685z"/><path transform="rotate(-34.027 208.434 153.593)" fill="url(#D)" fill-opacity=".9" d="M208.434 153.593h5.685v5.685h-5.685z"/><path transform="rotate(-34.027 209.128 153.727)" stroke="url(#E)" stroke-opacity=".9" d="M209.128 153.727h4.685v4.685h-4.685z"/><path transform="rotate(-34.027 61.006 64.401)" stroke="url(#F)" stroke-opacity=".9" d="M61.006 64.401h4.685v4.685h-4.685z"/><path transform="rotate(-34.027 75.641 86.076)" stroke="url(#G)" stroke-opacity=".9" d="M75.641 86.076h4.685v4.685h-4.685z"/><path transform="rotate(-34.027 90.276 107.751)" stroke="url(#H)" stroke-opacity=".9" d="M90.276 107.751h4.685v4.685h-4.685z"/><path transform="rotate(-34.027 104.911 129.426)" stroke="url(#I)" stroke-opacity=".9" d="M104.911 129.426h4.685v4.685h-4.685z"/><path transform="rotate(-34.027 118.852 150.966)" fill="url(#J)" fill-opacity=".9" d="M118.852 150.966h5.685v5.685h-5.685z"/><path transform="rotate(-34.027 119.547 151.1)" stroke="url(#K)" stroke-opacity=".9" d="M119.547 151.1h4.685v4.685h-4.685z"/><path transform="rotate(-34.027 134.181 172.775)" stroke="url(#L)" stroke-opacity=".9" d="M134.181 172.775h4.685v4.685h-4.685z"/><path transform="rotate(-34.027 148.816 194.45)" stroke="url(#M)" stroke-opacity=".9" d="M148.816 194.45h4.685v4.685h-4.685z"/><path transform="rotate(-34.027 151.475 3.317)" stroke="url(#N)" stroke-opacity=".9" d="M151.475 3.317h4.685v4.685h-4.685z"/><path transform="rotate(-34.027 166.11 24.991)" stroke="url(#O)" stroke-opacity=".9" d="M166.11 24.991h4.685v4.685h-4.685z"/><path transform="rotate(-34.027 180.745 46.666)" stroke="url(#P)" stroke-opacity=".9" d="M180.745 46.666h4.685v4.685h-4.685z"/><path transform="rotate(-34.027 195.381 68.34)" stroke="url(#Q)" stroke-opacity=".9" d="M195.381 68.341h4.685v4.685h-4.685z"/><path transform="rotate(-34.027 210.015 90.016)" stroke="url(#R)" stroke-opacity=".9" d="M210.015 90.016h4.685v4.685h-4.685z"/><path transform="rotate(-34.027 224.65 111.69)" stroke="url(#S)" stroke-opacity=".9" d="M224.65 111.69h4.685v4.685h-4.685z"/><path transform="rotate(-34.027 239.285 133.366)" stroke="url(#T)" stroke-opacity=".9" d="M239.285 133.366h4.685v4.685h-4.685z"/><defs><linearGradient id="a" x1=".001" y1="105.429" x2="6.926" y2="106.483" gradientUnits="userSpaceOnUse"><stop offset=".033" stop-color="#88A3E8"/><stop offset="1" stop-color="#C8A1D6"/></linearGradient><linearGradient id="b" x1="14.635" y1="127.104" x2="21.56" y2="128.158" gradientUnits="userSpaceOnUse"><stop offset=".033" stop-color="#88A3E8"/><stop offset="1" stop-color="#C8A1D6"/></linearGradient><linearGradient id="c" x1="29.269" y1="148.778" x2="36.194" y2="149.833" gradientUnits="userSpaceOnUse"><stop offset=".033" stop-color="#88A3E8"/><stop offset="1" stop-color="#C8A1D6"/></linearGradient><linearGradient id="d" x1="43.905" y1="170.454" x2="50.83" y2="171.509" gradientUnits="userSpaceOnUse"><stop offset=".033" stop-color="#88A3E8"/><stop offset="1" stop-color="#C8A1D6"/></linearGradient><linearGradient id="e" x1="58.539" y1="192.128" x2="65.465" y2="193.183" gradientUnits="userSpaceOnUse"><stop offset=".033" stop-color="#88A3E8"/><stop offset="1" stop-color="#C8A1D6"/></linearGradient><linearGradient id="f" x1="73.174" y1="213.803" x2="80.1" y2="214.857" gradientUnits="userSpaceOnUse"><stop offset=".033" stop-color="#88A3E8"/><stop offset="1" stop-color="#C8A1D6"/></linearGradient><linearGradient id="g" x1="87.809" y1="235.478" x2="94.734" y2="236.533" gradientUnits="userSpaceOnUse"><stop offset=".033" stop-color="#88A3E8"/><stop offset="1" stop-color="#C8A1D6"/></linearGradient><linearGradient id="h" x1="90.469" y1="44.344" x2="97.394" y2="45.399" gradientUnits="userSpaceOnUse"><stop offset=".033" stop-color="#88A3E8"/><stop offset="1" stop-color="#C8A1D6"/></linearGradient><linearGradient id="i" x1="105.103" y1="66.019" x2="112.029" y2="67.073" gradientUnits="userSpaceOnUse"><stop offset=".033" stop-color="#88A3E8"/><stop offset="1" stop-color="#C8A1D6"/></linearGradient><linearGradient id="j" x1="119.739" y1="87.693" x2="126.664" y2="88.748" gradientUnits="userSpaceOnUse"><stop offset=".033" stop-color="#88A3E8"/><stop offset="1" stop-color="#C8A1D6"/></linearGradient><linearGradient id="k" x1="134.373" y1="109.369" x2="141.299" y2="110.423" gradientUnits="userSpaceOnUse"><stop offset=".033" stop-color="#88A3E8"/><stop offset="1" stop-color="#C8A1D6"/></linearGradient><linearGradient id="l" x1="149.008" y1="131.044" x2="155.934" y2="132.098" gradientUnits="userSpaceOnUse"><stop offset=".033" stop-color="#88A3E8"/><stop offset="1" stop-color="#C8A1D6"/></linearGradient><linearGradient id="m" x1="163.643" y1="152.718" x2="170.569" y2="153.773" gradientUnits="userSpaceOnUse"><stop offset=".033" stop-color="#88A3E8"/><stop offset="1" stop-color="#C8A1D6"/></linearGradient><linearGradient id="n" x1="163.643" y1="152.718" x2="170.569" y2="153.773" gradientUnits="userSpaceOnUse"><stop offset=".033" stop-color="#88A3E8"/><stop offset="1" stop-color="#C8A1D6"/></linearGradient><linearGradient id="o" x1="178.278" y1="174.393" x2="185.203" y2="175.448" gradientUnits="userSpaceOnUse"><stop offset=".033" stop-color="#88A3E8"/><stop offset="1" stop-color="#C8A1D6"/></linearGradient><linearGradient id="p" x1="30.156" y1="85.067" x2="37.081" y2="86.122" gradientUnits="userSpaceOnUse"><stop offset=".033" stop-color="#88A3E8"/><stop offset="1" stop-color="#C8A1D6"/></linearGradient><linearGradient id="q" x1="44.791" y1="106.742" x2="51.716" y2="107.797" gradientUnits="userSpaceOnUse"><stop offset=".033" stop-color="#88A3E8"/><stop offset="1" stop-color="#C8A1D6"/></linearGradient><linearGradient id="r" x1="59.425" y1="128.417" x2="66.351" y2="129.471" gradientUnits="userSpaceOnUse"><stop offset=".033" stop-color="#88A3E8"/><stop offset="1" stop-color="#C8A1D6"/></linearGradient><linearGradient id="s" x1="74.061" y1="150.092" x2="80.987" y2="151.146" gradientUnits="userSpaceOnUse"><stop offset=".033" stop-color="#88A3E8"/><stop offset="1" stop-color="#C8A1D6"/></linearGradient><linearGradient id="t" x1="88.695" y1="171.767" x2="95.621" y2="172.821" gradientUnits="userSpaceOnUse"><stop offset=".033" stop-color="#88A3E8"/><stop offset="1" stop-color="#C8A1D6"/></linearGradient><linearGradient id="u" x1="88.695" y1="171.767" x2="95.621" y2="172.821" gradientUnits="userSpaceOnUse"><stop offset=".033" stop-color="#88A3E8"/><stop offset="1" stop-color="#C8A1D6"/></linearGradient><linearGradient id="v" x1="103.331" y1="193.441" x2="110.256" y2="194.496" gradientUnits="userSpaceOnUse"><stop offset=".033" stop-color="#88A3E8"/><stop offset="1" stop-color="#C8A1D6"/></linearGradient><linearGradient id="w" x1="117.965" y1="215.117" x2="124.891" y2="216.171" gradientUnits="userSpaceOnUse"><stop offset=".033" stop-color="#88A3E8"/><stop offset="1" stop-color="#C8A1D6"/></linearGradient><linearGradient id="x" x1="120.625" y1="23.983" x2="127.55" y2="25.037" gradientUnits="userSpaceOnUse"><stop offset=".033" stop-color="#88A3E8"/><stop offset="1" stop-color="#C8A1D6"/></linearGradient><linearGradient id="y" x1="135.26" y1="45.657" x2="142.185" y2="46.712" gradientUnits="userSpaceOnUse"><stop offset=".033" stop-color="#88A3E8"/><stop offset="1" stop-color="#C8A1D6"/></linearGradient><linearGradient id="z" x1="149.894" y1="67.332" x2="156.82" y2="68.386" gradientUnits="userSpaceOnUse"><stop offset=".033" stop-color="#88A3E8"/><stop offset="1" stop-color="#C8A1D6"/></linearGradient><linearGradient id="A" x1="164.53" y1="89.007" x2="171.455" y2="90.061" gradientUnits="userSpaceOnUse"><stop offset=".033" stop-color="#88A3E8"/><stop offset="1" stop-color="#C8A1D6"/></linearGradient><linearGradient id="B" x1="179.165" y1="110.682" x2="186.09" y2="111.737" gradientUnits="userSpaceOnUse"><stop offset=".033" stop-color="#88A3E8"/><stop offset="1" stop-color="#C8A1D6"/></linearGradient><linearGradient id="C" x1="193.8" y1="132.357" x2="200.725" y2="133.412" gradientUnits="userSpaceOnUse"><stop offset=".033" stop-color="#88A3E8"/><stop offset="1" stop-color="#C8A1D6"/></linearGradient><linearGradient id="D" x1="208.434" y1="154.032" x2="215.359" y2="155.086" gradientUnits="userSpaceOnUse"><stop offset=".033" stop-color="#88A3E8"/><stop offset="1" stop-color="#C8A1D6"/></linearGradient><linearGradient id="E" x1="208.434" y1="154.032" x2="215.359" y2="155.086" gradientUnits="userSpaceOnUse"><stop offset=".033" stop-color="#88A3E8"/><stop offset="1" stop-color="#C8A1D6"/></linearGradient><linearGradient id="F" x1="60.312" y1="64.706" x2="67.237" y2="65.76" gradientUnits="userSpaceOnUse"><stop offset=".033" stop-color="#88A3E8"/><stop offset="1" stop-color="#C8A1D6"/></linearGradient><linearGradient id="G" x1="74.947" y1="86.381" x2="81.873" y2="87.435" gradientUnits="userSpaceOnUse"><stop offset=".033" stop-color="#88A3E8"/><stop offset="1" stop-color="#C8A1D6"/></linearGradient><linearGradient id="H" x1="89.582" y1="108.055" x2="96.507" y2="109.11" gradientUnits="userSpaceOnUse"><stop offset=".033" stop-color="#88A3E8"/><stop offset="1" stop-color="#C8A1D6"/></linearGradient><linearGradient id="I" x1="104.217" y1="129.73" x2="111.142" y2="130.785" gradientUnits="userSpaceOnUse"><stop offset=".033" stop-color="#88A3E8"/><stop offset="1" stop-color="#C8A1D6"/></linearGradient><linearGradient id="J" x1="118.852" y1="151.405" x2="125.778" y2="152.46" gradientUnits="userSpaceOnUse"><stop offset=".033" stop-color="#88A3E8"/><stop offset="1" stop-color="#C8A1D6"/></linearGradient><linearGradient id="K" x1="118.852" y1="151.405" x2="125.778" y2="152.46" gradientUnits="userSpaceOnUse"><stop offset=".033" stop-color="#88A3E8"/><stop offset="1" stop-color="#C8A1D6"/></linearGradient><linearGradient id="L" x1="133.486" y1="173.08" x2="140.412" y2="174.134" gradientUnits="userSpaceOnUse"><stop offset=".033" stop-color="#88A3E8"/><stop offset="1" stop-color="#C8A1D6"/></linearGradient><linearGradient id="M" x1="148.122" y1="194.755" x2="155.047" y2="195.809" gradientUnits="userSpaceOnUse"><stop offset=".033" stop-color="#88A3E8"/><stop offset="1" stop-color="#C8A1D6"/></linearGradient><linearGradient id="N" x1="150.781" y1="3.621" x2="157.707" y2="4.676" gradientUnits="userSpaceOnUse"><stop offset=".033" stop-color="#88A3E8"/><stop offset="1" stop-color="#C8A1D6"/></linearGradient><linearGradient id="O" x1="165.416" y1="25.296" x2="172.342" y2="26.35" gradientUnits="userSpaceOnUse"><stop offset=".033" stop-color="#88A3E8"/><stop offset="1" stop-color="#C8A1D6"/></linearGradient><linearGradient id="P" x1="180.051" y1="46.971" x2="186.976" y2="48.026" gradientUnits="userSpaceOnUse"><stop offset=".033" stop-color="#88A3E8"/><stop offset="1" stop-color="#C8A1D6"/></linearGradient><linearGradient id="Q" x1="194.686" y1="68.645" x2="201.612" y2="69.7" gradientUnits="userSpaceOnUse"><stop offset=".033" stop-color="#88A3E8"/><stop offset="1" stop-color="#C8A1D6"/></linearGradient><linearGradient id="R" x1="209.321" y1="90.321" x2="216.246" y2="91.375" gradientUnits="userSpaceOnUse"><stop offset=".033" stop-color="#88A3E8"/><stop offset="1" stop-color="#C8A1D6"/></linearGradient><linearGradient id="S" x1="223.956" y1="111.995" x2="230.881" y2="113.05" gradientUnits="userSpaceOnUse"><stop offset=".033" stop-color="#88A3E8"/><stop offset="1" stop-color="#C8A1D6"/></linearGradient><linearGradient id="T" x1="238.591" y1="133.67" x2="245.516" y2="134.725" gradientUnits="userSpaceOnUse"><stop offset=".033" stop-color="#88A3E8"/><stop offset="1" stop-color="#C8A1D6"/></linearGradient></defs></svg>