<svg width="117" height="177" fill="none" xmlns="http://www.w3.org/2000/svg"><path transform="scale(-1 1) rotate(-34.027 224.736 276.522)" stroke="url(#a)" stroke-opacity=".9" d="M-.694.135h3.196v3.196H-.694z"/><path transform="scale(-1 1) rotate(-34.027 -4.794 202.78)" stroke="url(#b)" stroke-opacity=".9" d="M-.694.135h3.196v3.196H-.694z"/><path transform="scale(-1 1) rotate(-34.027 26.747 193.128)" stroke="url(#c)" stroke-opacity=".9" d="M-.694.135h3.196v3.196H-.694z"/><path transform="scale(-1 1) rotate(-34.027 58.288 183.478)" stroke="url(#d)" stroke-opacity=".9" d="M-.694.135h3.196v3.196H-.694z"/><path transform="scale(-1 1) rotate(-34.027 89.83 173.826)" stroke="url(#e)" stroke-opacity=".9" d="M-.694.135h3.196v3.196H-.694z"/><path transform="scale(-1 1) rotate(-34.027 121.371 164.175)" stroke="url(#f)" stroke-opacity=".9" d="M-.694.135h3.196v3.196H-.694z"/><path transform="scale(-1 1) rotate(-34.027 152.912 156.657)" fill="url(#g)" fill-opacity=".9" d="M0 0h4.196v4.196H0z"/><path transform="scale(-1 1) rotate(-34.027 152.911 154.523)" stroke="url(#h)" stroke-opacity=".9" d="M-.694.135h3.196v3.196H-.694z"/><path transform="scale(-1 1) rotate(-34.027 184.453 144.872)" stroke="url(#i)" stroke-opacity=".9" d="M-.694.135h3.196v3.196H-.694z"/><path transform="scale(-1 1) rotate(-34.027 148.227 254.076)" fill="url(#j)" fill-opacity=".9" d="M0 0h4.196v4.196H0z"/><path transform="scale(-1 1) rotate(-34.027 148.226 251.942)" stroke="url(#k)" stroke-opacity=".9" d="M-.694.135h3.196v3.196H-.694z"/><path transform="scale(-1 1) rotate(-34.027 179.768 242.29)" stroke="url(#l)" stroke-opacity=".9" d="M-.694.135h3.196v3.196H-.694z"/><path transform="scale(-1 1) rotate(-34.027 211.309 232.639)" stroke="url(#m)" stroke-opacity=".9" d="M-.694.135h3.196v3.196H-.694z"/><path transform="scale(-1 1) rotate(-34.027 -18.222 158.896)" stroke="url(#n)" stroke-opacity=".9" d="M-.694.135h3.196v3.196H-.694z"/><path transform="scale(-1 1) rotate(-34.027 13.32 149.245)" stroke="url(#o)" stroke-opacity=".9" d="M-.694.135h3.196v3.196H-.694z"/><path transform="scale(-1 1) rotate(-34.027 44.86 139.594)" stroke="url(#p)" stroke-opacity=".9" d="M-.694.135h3.196v3.196H-.694z"/><path transform="scale(-1 1) rotate(-34.027 76.402 129.943)" stroke="url(#q)" stroke-opacity=".9" d="M-.694.135h3.196v3.196H-.694z"/><path transform="scale(-1 1) rotate(-34.027 107.943 120.291)" stroke="url(#r)" stroke-opacity=".9" d="M-.694.135h3.196v3.196H-.694z"/><path transform="scale(-1 1) rotate(-34.027 139.484 110.64)" stroke="url(#s)" stroke-opacity=".9" d="M-.694.135h3.196v3.196H-.694z"/><path transform="scale(-1 1) rotate(-34.027 171.025 103.123)" fill="url(#t)" fill-opacity=".9" d="M0 0h4.196v4.196H0z"/><path transform="scale(-1 1) rotate(-34.027 171.026 100.989)" stroke="url(#u)" stroke-opacity=".9" d="M-.694.135h3.196v3.196H-.694z"/><path transform="scale(-1 1) rotate(-34.027 71.717 227.36)" stroke="url(#v)" stroke-opacity=".9" d="M-.694.135h3.196v3.196H-.694z"/><path transform="scale(-1 1) rotate(-34.027 103.258 217.708)" stroke="url(#w)" stroke-opacity=".9" d="M-.694.135h3.196v3.196H-.694z"/><path transform="scale(-1 1) rotate(-34.027 134.8 210.192)" fill="url(#x)" fill-opacity=".9" d="M0 0h4.196v4.196H0z"/><path transform="scale(-1 1) rotate(-34.027 134.799 208.058)" stroke="url(#y)" stroke-opacity=".9" d="M-.694.135h3.196v3.196H-.694z"/><path transform="scale(-1 1) rotate(-34.027 166.34 198.407)" stroke="url(#z)" stroke-opacity=".9" d="M-.694.135h3.196v3.196H-.694z"/><path transform="scale(-1 1) rotate(-34.027 197.881 188.756)" stroke="url(#A)" stroke-opacity=".9" d="M-.694.135h3.196v3.196H-.694z"/><path transform="scale(-1 1) rotate(-34.027 -31.649 115.013)" stroke="url(#B)" stroke-opacity=".9" d="M-.694.135h3.196v3.196H-.694z"/><path transform="scale(-1 1) rotate(-34.027 -.108 105.362)" stroke="url(#C)" stroke-opacity=".9" d="M-.694.135h3.196v3.196H-.694z"/><path transform="scale(-1 1) rotate(-34.027 31.433 95.71)" stroke="url(#D)" stroke-opacity=".9" d="M-.694.135h3.196v3.196H-.694z"/><path transform="scale(-1 1) rotate(-34.027 62.974 86.06)" stroke="url(#E)" stroke-opacity=".9" d="M-.694.135h3.196v3.196H-.694z"/><path transform="scale(-1 1) rotate(-34.027 94.515 76.408)" stroke="url(#F)" stroke-opacity=".9" d="M-.694.135h3.196v3.196H-.694z"/><path transform="scale(-1 1) rotate(-34.027 126.056 66.757)" stroke="url(#G)" stroke-opacity=".9" d="M-.694.135h3.196v3.196H-.694z"/><path transform="scale(-1 1) rotate(-34.027 157.598 57.106)" stroke="url(#H)" stroke-opacity=".9" d="M-.694.135h3.196v3.196H-.694z"/><defs><linearGradient id="a" x1="0" y1=".324" x2="5.111" y2="1.103" gradientUnits="userSpaceOnUse"><stop offset=".033" stop-color="#88A3E8"/><stop offset="1" stop-color="#C8A1D6"/></linearGradient><linearGradient id="b" x1="0" y1=".324" x2="5.111" y2="1.103" gradientUnits="userSpaceOnUse"><stop offset=".033" stop-color="#88A3E8"/><stop offset="1" stop-color="#C8A1D6"/></linearGradient><linearGradient id="c" x1="0" y1=".324" x2="5.111" y2="1.103" gradientUnits="userSpaceOnUse"><stop offset=".033" stop-color="#88A3E8"/><stop offset="1" stop-color="#C8A1D6"/></linearGradient><linearGradient id="d" x1="0" y1=".324" x2="5.111" y2="1.103" gradientUnits="userSpaceOnUse"><stop offset=".033" stop-color="#88A3E8"/><stop offset="1" stop-color="#C8A1D6"/></linearGradient><linearGradient id="e" x1="0" y1=".324" x2="5.111" y2="1.103" gradientUnits="userSpaceOnUse"><stop offset=".033" stop-color="#88A3E8"/><stop offset="1" stop-color="#C8A1D6"/></linearGradient><linearGradient id="f" x1="0" y1=".324" x2="5.111" y2="1.103" gradientUnits="userSpaceOnUse"><stop offset=".033" stop-color="#88A3E8"/><stop offset="1" stop-color="#C8A1D6"/></linearGradient><linearGradient id="g" x1="0" y1=".324" x2="5.111" y2="1.103" gradientUnits="userSpaceOnUse"><stop offset=".033" stop-color="#88A3E8"/><stop offset="1" stop-color="#C8A1D6"/></linearGradient><linearGradient id="h" x1="0" y1=".324" x2="5.111" y2="1.103" gradientUnits="userSpaceOnUse"><stop offset=".033" stop-color="#88A3E8"/><stop offset="1" stop-color="#C8A1D6"/></linearGradient><linearGradient id="i" x1="0" y1=".324" x2="5.111" y2="1.103" gradientUnits="userSpaceOnUse"><stop offset=".033" stop-color="#88A3E8"/><stop offset="1" stop-color="#C8A1D6"/></linearGradient><linearGradient id="j" x1="0" y1=".324" x2="5.111" y2="1.103" gradientUnits="userSpaceOnUse"><stop offset=".033" stop-color="#88A3E8"/><stop offset="1" stop-color="#C8A1D6"/></linearGradient><linearGradient id="k" x1="0" y1=".324" x2="5.111" y2="1.103" gradientUnits="userSpaceOnUse"><stop offset=".033" stop-color="#88A3E8"/><stop offset="1" stop-color="#C8A1D6"/></linearGradient><linearGradient id="l" x1="0" y1=".324" x2="5.111" y2="1.103" gradientUnits="userSpaceOnUse"><stop offset=".033" stop-color="#88A3E8"/><stop offset="1" stop-color="#C8A1D6"/></linearGradient><linearGradient id="m" x1="0" y1=".324" x2="5.111" y2="1.103" gradientUnits="userSpaceOnUse"><stop offset=".033" stop-color="#88A3E8"/><stop offset="1" stop-color="#C8A1D6"/></linearGradient><linearGradient id="n" x1="0" y1=".324" x2="5.111" y2="1.103" gradientUnits="userSpaceOnUse"><stop offset=".033" stop-color="#88A3E8"/><stop offset="1" stop-color="#C8A1D6"/></linearGradient><linearGradient id="o" x1="0" y1=".324" x2="5.111" y2="1.103" gradientUnits="userSpaceOnUse"><stop offset=".033" stop-color="#88A3E8"/><stop offset="1" stop-color="#C8A1D6"/></linearGradient><linearGradient id="p" x1="0" y1=".324" x2="5.111" y2="1.103" gradientUnits="userSpaceOnUse"><stop offset=".033" stop-color="#88A3E8"/><stop offset="1" stop-color="#C8A1D6"/></linearGradient><linearGradient id="q" x1="0" y1=".324" x2="5.111" y2="1.103" gradientUnits="userSpaceOnUse"><stop offset=".033" stop-color="#88A3E8"/><stop offset="1" stop-color="#C8A1D6"/></linearGradient><linearGradient id="r" x1="0" y1=".324" x2="5.111" y2="1.103" gradientUnits="userSpaceOnUse"><stop offset=".033" stop-color="#88A3E8"/><stop offset="1" stop-color="#C8A1D6"/></linearGradient><linearGradient id="s" x1="0" y1=".324" x2="5.111" y2="1.103" gradientUnits="userSpaceOnUse"><stop offset=".033" stop-color="#88A3E8"/><stop offset="1" stop-color="#C8A1D6"/></linearGradient><linearGradient id="t" x1="0" y1=".324" x2="5.111" y2="1.103" gradientUnits="userSpaceOnUse"><stop offset=".033" stop-color="#88A3E8"/><stop offset="1" stop-color="#C8A1D6"/></linearGradient><linearGradient id="u" x1="0" y1=".324" x2="5.111" y2="1.103" gradientUnits="userSpaceOnUse"><stop offset=".033" stop-color="#88A3E8"/><stop offset="1" stop-color="#C8A1D6"/></linearGradient><linearGradient id="v" x1="0" y1=".324" x2="5.111" y2="1.103" gradientUnits="userSpaceOnUse"><stop offset=".033" stop-color="#88A3E8"/><stop offset="1" stop-color="#C8A1D6"/></linearGradient><linearGradient id="w" x1="0" y1=".324" x2="5.111" y2="1.103" gradientUnits="userSpaceOnUse"><stop offset=".033" stop-color="#88A3E8"/><stop offset="1" stop-color="#C8A1D6"/></linearGradient><linearGradient id="x" x1="0" y1=".324" x2="5.111" y2="1.103" gradientUnits="userSpaceOnUse"><stop offset=".033" stop-color="#88A3E8"/><stop offset="1" stop-color="#C8A1D6"/></linearGradient><linearGradient id="y" x1="0" y1=".324" x2="5.111" y2="1.103" gradientUnits="userSpaceOnUse"><stop offset=".033" stop-color="#88A3E8"/><stop offset="1" stop-color="#C8A1D6"/></linearGradient><linearGradient id="z" x1="0" y1=".324" x2="5.111" y2="1.103" gradientUnits="userSpaceOnUse"><stop offset=".033" stop-color="#88A3E8"/><stop offset="1" stop-color="#C8A1D6"/></linearGradient><linearGradient id="A" x1="0" y1=".324" x2="5.111" y2="1.103" gradientUnits="userSpaceOnUse"><stop offset=".033" stop-color="#88A3E8"/><stop offset="1" stop-color="#C8A1D6"/></linearGradient><linearGradient id="B" x1="0" y1=".324" x2="5.111" y2="1.103" gradientUnits="userSpaceOnUse"><stop offset=".033" stop-color="#88A3E8"/><stop offset="1" stop-color="#C8A1D6"/></linearGradient><linearGradient id="C" x1="0" y1=".324" x2="5.111" y2="1.103" gradientUnits="userSpaceOnUse"><stop offset=".033" stop-color="#88A3E8"/><stop offset="1" stop-color="#C8A1D6"/></linearGradient><linearGradient id="D" x1="0" y1=".324" x2="5.111" y2="1.103" gradientUnits="userSpaceOnUse"><stop offset=".033" stop-color="#88A3E8"/><stop offset="1" stop-color="#C8A1D6"/></linearGradient><linearGradient id="E" x1="0" y1=".324" x2="5.111" y2="1.103" gradientUnits="userSpaceOnUse"><stop offset=".033" stop-color="#88A3E8"/><stop offset="1" stop-color="#C8A1D6"/></linearGradient><linearGradient id="F" x1="0" y1=".324" x2="5.111" y2="1.103" gradientUnits="userSpaceOnUse"><stop offset=".033" stop-color="#88A3E8"/><stop offset="1" stop-color="#C8A1D6"/></linearGradient><linearGradient id="G" x1="0" y1=".324" x2="5.111" y2="1.103" gradientUnits="userSpaceOnUse"><stop offset=".033" stop-color="#88A3E8"/><stop offset="1" stop-color="#C8A1D6"/></linearGradient><linearGradient id="H" x1="0" y1=".324" x2="5.111" y2="1.103" gradientUnits="userSpaceOnUse"><stop offset=".033" stop-color="#88A3E8"/><stop offset="1" stop-color="#C8A1D6"/></linearGradient></defs></svg>