<svg width="191" height="35" fill="none" xmlns="http://www.w3.org/2000/svg"><g filter="url(#a)"><path d="m21.444 12.101.112.346H32.664l-8.728 6.282-.296.214.112.347 3.336 10.266-8.686-6.332-.295-.215-.294.215L9.12 29.56l3.288-10.219.11-.344-.292-.213-8.692-6.337h11.123l.113-.346 3.336-10.27 3.337 10.27Z" stroke="#FFCE31" shape-rendering="crispEdges"/></g><g filter="url(#b)"><path d="m60.43 12.105.114.342H71.92l-8.936 6.28-.305.213.118.353 3.42 10.28-8.926-6.352-.29-.207-.29.207-8.933 6.357 3.373-10.233.115-.35-.3-.214-8.9-6.334H53.455l.114-.342L57 1.797l3.43 10.308Z" stroke="#FFCE31" shape-rendering="crispEdges"/></g><g filter="url(#c)"><path d="m98.93 12.105.115.342H110.419l-8.936 6.28-.305.213.118.353 3.421 10.28-8.927-6.352-.29-.207-.29.207-8.933 6.357 3.373-10.233.115-.35-.3-.214-8.9-6.334H91.955l.115-.342L95.5 1.797l3.43 10.308Z" stroke="#FFCE31" shape-rendering="crispEdges"/></g><g filter="url(#d)"><path d="m137.431 12.105.114.342H148.919l-8.936 6.28-.305.213.118.353 3.421 10.28-8.927-6.352-.29-.207-.29.207-8.933 6.357 3.373-10.233.115-.35-.3-.214-8.9-6.334h11.391l.114-.342L134 1.797l3.431 10.308Z" stroke="#FFCE31" shape-rendering="crispEdges"/></g><g filter="url(#e)"><path d="m176.229 12.101.113.346h11.107l-8.728 6.282-.296.214.113.347 3.335 10.266-8.686-6.332-.294-.215-.295.215-8.692 6.336 3.288-10.219.111-.344-.292-.213-8.693-6.337H169.444l.112-.346 3.337-10.27 3.336 10.27Z" stroke="#FFCE31" shape-rendering="crispEdges"/></g><defs><filter id="a" x="0" y=".213" width="36.214" height="34.656" filterUnits="userSpaceOnUse" color-interpolation-filters="sRGB"><feFlood flood-opacity="0" result="BackgroundImageFix"/><feColorMatrix in="SourceAlpha" values="0 0 0 0 0 0 0 0 0 0 0 0 0 0 0 0 0 0 127 0" result="hardAlpha"/><feOffset dy="2"/><feGaussianBlur stdDeviation="1"/><feComposite in2="hardAlpha" operator="out"/><feColorMatrix values="0 0 0 0 0 0 0 0 0 0 0 0 0 0 0 0 0 0 0.25 0"/><feBlend in2="BackgroundImageFix" result="effect1_dropShadow_27_1364"/><feBlend in="SourceGraphic" in2="effect1_dropShadow_27_1364" result="shape"/></filter><filter id="b" x="38.5" y=".213" width="37" height="34.656" filterUnits="userSpaceOnUse" color-interpolation-filters="sRGB"><feFlood flood-opacity="0" result="BackgroundImageFix"/><feColorMatrix in="SourceAlpha" values="0 0 0 0 0 0 0 0 0 0 0 0 0 0 0 0 0 0 127 0" result="hardAlpha"/><feOffset dy="2"/><feGaussianBlur stdDeviation="1"/><feComposite in2="hardAlpha" operator="out"/><feColorMatrix values="0 0 0 0 0 0 0 0 0 0 0 0 0 0 0 0 0 0 0.25 0"/><feBlend in2="BackgroundImageFix" result="effect1_dropShadow_27_1364"/><feBlend in="SourceGraphic" in2="effect1_dropShadow_27_1364" result="shape"/></filter><filter id="c" x="77" y=".213" width="37" height="34.656" filterUnits="userSpaceOnUse" color-interpolation-filters="sRGB"><feFlood flood-opacity="0" result="BackgroundImageFix"/><feColorMatrix in="SourceAlpha" values="0 0 0 0 0 0 0 0 0 0 0 0 0 0 0 0 0 0 127 0" result="hardAlpha"/><feOffset dy="2"/><feGaussianBlur stdDeviation="1"/><feComposite in2="hardAlpha" operator="out"/><feColorMatrix values="0 0 0 0 0 0 0 0 0 0 0 0 0 0 0 0 0 0 0.25 0"/><feBlend in2="BackgroundImageFix" result="effect1_dropShadow_27_1364"/><feBlend in="SourceGraphic" in2="effect1_dropShadow_27_1364" result="shape"/></filter><filter id="d" x="115.5" y=".213" width="37" height="34.656" filterUnits="userSpaceOnUse" color-interpolation-filters="sRGB"><feFlood flood-opacity="0" result="BackgroundImageFix"/><feColorMatrix in="SourceAlpha" values="0 0 0 0 0 0 0 0 0 0 0 0 0 0 0 0 0 0 127 0" result="hardAlpha"/><feOffset dy="2"/><feGaussianBlur stdDeviation="1"/><feComposite in2="hardAlpha" operator="out"/><feColorMatrix values="0 0 0 0 0 0 0 0 0 0 0 0 0 0 0 0 0 0 0.25 0"/><feBlend in2="BackgroundImageFix" result="effect1_dropShadow_27_1364"/><feBlend in="SourceGraphic" in2="effect1_dropShadow_27_1364" result="shape"/></filter><filter id="e" x="154.786" y=".213" width="36.214" height="34.656" filterUnits="userSpaceOnUse" color-interpolation-filters="sRGB"><feFlood flood-opacity="0" result="BackgroundImageFix"/><feColorMatrix in="SourceAlpha" values="0 0 0 0 0 0 0 0 0 0 0 0 0 0 0 0 0 0 127 0" result="hardAlpha"/><feOffset dy="2"/><feGaussianBlur stdDeviation="1"/><feComposite in2="hardAlpha" operator="out"/><feColorMatrix values="0 0 0 0 0 0 0 0 0 0 0 0 0 0 0 0 0 0 0.25 0"/><feBlend in2="BackgroundImageFix" result="effect1_dropShadow_27_1364"/><feBlend in="SourceGraphic" in2="effect1_dropShadow_27_1364" result="shape"/></filter></defs></svg>