<svg width="92" height="18" fill="none" xmlns="http://www.w3.org/2000/svg"><g filter="url(#a)"><path d="M16.504 5.752h-5.917L8.752 0 6.917 5.752H1l4.78 3.55-1.808 5.727 4.78-3.55 4.78 3.55-1.834-5.753 4.806-3.524Z" fill="#D0CDCD"/></g><g filter="url(#b)"><path d="M35.412 5.752H29.35L27.47 0l-1.879 5.752H19.53l4.898 3.55-1.853 5.727 4.897-3.55 4.897 3.55-1.88-5.753 4.924-3.524Z" fill="#D0CDCD"/></g><g filter="url(#c)"><path d="M53.941 5.752H47.88L46 0l-1.88 5.752H38.06l4.897 3.55-1.853 5.727L46 11.479l4.897 3.55-1.88-5.753 4.924-3.524Z" fill="#D0CDCD"/></g><g filter="url(#d)"><path d="m65.934 5.908.112.344H70.913L67.256 8.87l-.298.213.114.349 1.4 4.288-3.65-2.646-.293-.213-.293.213-3.656 2.65 1.381-4.268.112-.345-.294-.213-3.65-2.646h4.884l.112-.344L64.53 1.61l1.405 4.298Z" stroke="#C8C8C8" shape-rendering="crispEdges"/></g><g filter="url(#e)"><path d="m84.606 5.904.111.348h4.755l-3.574 2.621-.29.213.11.342 1.362 4.274-3.534-2.624-.298-.222-.298.222-3.54 2.629 1.343-4.254.107-.34-.286-.212-3.566-2.649H81.778l.111-.348 1.359-4.258 1.358 4.258Z" stroke="#C8C8C8" shape-rendering="crispEdges"/></g><defs><filter id="a" x="0" y="0" width="17.504" height="17.029" filterUnits="userSpaceOnUse" color-interpolation-filters="sRGB"><feFlood flood-opacity="0" result="BackgroundImageFix"/><feColorMatrix in="SourceAlpha" values="0 0 0 0 0 0 0 0 0 0 0 0 0 0 0 0 0 0 127 0" result="hardAlpha"/><feOffset dy="1"/><feGaussianBlur stdDeviation=".5"/><feComposite in2="hardAlpha" operator="out"/><feColorMatrix values="0 0 0 0 0 0 0 0 0 0 0 0 0 0 0 0 0 0 0.25 0"/><feBlend in2="BackgroundImageFix" result="effect1_dropShadow_40_2868"/><feBlend in="SourceGraphic" in2="effect1_dropShadow_40_2868" result="shape"/></filter><filter id="b" x="18.529" y="0" width="17.882" height="17.029" filterUnits="userSpaceOnUse" color-interpolation-filters="sRGB"><feFlood flood-opacity="0" result="BackgroundImageFix"/><feColorMatrix in="SourceAlpha" values="0 0 0 0 0 0 0 0 0 0 0 0 0 0 0 0 0 0 127 0" result="hardAlpha"/><feOffset dy="1"/><feGaussianBlur stdDeviation=".5"/><feComposite in2="hardAlpha" operator="out"/><feColorMatrix values="0 0 0 0 0 0 0 0 0 0 0 0 0 0 0 0 0 0 0.25 0"/><feBlend in2="BackgroundImageFix" result="effect1_dropShadow_40_2868"/><feBlend in="SourceGraphic" in2="effect1_dropShadow_40_2868" result="shape"/></filter><filter id="c" x="37.059" y="0" width="17.882" height="17.029" filterUnits="userSpaceOnUse" color-interpolation-filters="sRGB"><feFlood flood-opacity="0" result="BackgroundImageFix"/><feColorMatrix in="SourceAlpha" values="0 0 0 0 0 0 0 0 0 0 0 0 0 0 0 0 0 0 127 0" result="hardAlpha"/><feOffset dy="1"/><feGaussianBlur stdDeviation=".5"/><feComposite in2="hardAlpha" operator="out"/><feColorMatrix values="0 0 0 0 0 0 0 0 0 0 0 0 0 0 0 0 0 0 0.25 0"/><feBlend in2="BackgroundImageFix" result="effect1_dropShadow_40_2868"/><feBlend in="SourceGraphic" in2="effect1_dropShadow_40_2868" result="shape"/></filter><filter id="d" x="55.588" y="0" width="17.882" height="17.029" filterUnits="userSpaceOnUse" color-interpolation-filters="sRGB"><feFlood flood-opacity="0" result="BackgroundImageFix"/><feColorMatrix in="SourceAlpha" values="0 0 0 0 0 0 0 0 0 0 0 0 0 0 0 0 0 0 127 0" result="hardAlpha"/><feOffset dy="1"/><feGaussianBlur stdDeviation=".5"/><feComposite in2="hardAlpha" operator="out"/><feColorMatrix values="0 0 0 0 0 0 0 0 0 0 0 0 0 0 0 0 0 0 0.25 0"/><feBlend in2="BackgroundImageFix" result="effect1_dropShadow_40_2868"/><feBlend in="SourceGraphic" in2="effect1_dropShadow_40_2868" result="shape"/></filter><filter id="e" x="74.496" y="0" width="17.504" height="17.029" filterUnits="userSpaceOnUse" color-interpolation-filters="sRGB"><feFlood flood-opacity="0" result="BackgroundImageFix"/><feColorMatrix in="SourceAlpha" values="0 0 0 0 0 0 0 0 0 0 0 0 0 0 0 0 0 0 127 0" result="hardAlpha"/><feOffset dy="1"/><feGaussianBlur stdDeviation=".5"/><feComposite in2="hardAlpha" operator="out"/><feColorMatrix values="0 0 0 0 0 0 0 0 0 0 0 0 0 0 0 0 0 0 0.25 0"/><feBlend in2="BackgroundImageFix" result="effect1_dropShadow_40_2868"/><feBlend in="SourceGraphic" in2="effect1_dropShadow_40_2868" result="shape"/></filter></defs></svg>