<svg width="86" height="149" viewBox="0 0 86 149" fill="none" xmlns="http://www.w3.org/2000/svg">
<rect x="0.70096" y="67.8098" width="2.42596" height="2.53485" transform="rotate(-36.7907 0.70096 67.8098)" stroke="url(#paint0_linear_27_1526)" stroke-opacity="0.4"/>
<rect x="10.4392" y="80.8319" width="2.42596" height="2.53485" transform="rotate(-36.7907 10.4392 80.8319)" stroke="url(#paint1_linear_27_1526)" stroke-opacity="0.4"/>
<rect x="20.1774" y="93.8533" width="2.42596" height="2.53485" transform="rotate(-36.7907 20.1774 93.8533)" stroke="url(#paint2_linear_27_1526)" stroke-opacity="0.4"/>
<rect x="29.9156" y="106.875" width="2.42596" height="2.53485" transform="rotate(-36.7907 29.9156 106.875)" stroke="url(#paint3_linear_27_1526)" stroke-opacity="0.4"/>
<rect x="39.6537" y="119.897" width="2.42596" height="2.53485" transform="rotate(-36.7907 39.6537 119.897)" stroke="url(#paint4_linear_27_1526)" stroke-opacity="0.4"/>
<rect x="49.392" y="132.918" width="2.42596" height="2.53485" transform="rotate(-36.7907 49.392 132.918)" stroke="url(#paint5_linear_27_1526)" stroke-opacity="0.4"/>
<rect x="59.1302" y="145.94" width="2.42596" height="2.53485" transform="rotate(-36.7907 59.1302 145.94)" stroke="url(#paint6_linear_27_1526)" stroke-opacity="0.4"/>
<rect x="53.3782" y="28.4159" width="2.42596" height="2.53485" transform="rotate(-36.7907 53.3782 28.4159)" stroke="url(#paint7_linear_27_1526)" stroke-opacity="0.4"/>
<rect x="63.1165" y="41.4376" width="2.42596" height="2.53485" transform="rotate(-36.7907 63.1165 41.4376)" stroke="url(#paint8_linear_27_1526)" stroke-opacity="0.4"/>
<rect x="72.8546" y="54.4591" width="2.42596" height="2.53485" transform="rotate(-36.7907 72.8546 54.4591)" stroke="url(#paint9_linear_27_1526)" stroke-opacity="0.4"/>
<rect x="82.5928" y="67.4808" width="2.42596" height="2.53485" transform="rotate(-36.7907 82.5928 67.4808)" stroke="url(#paint10_linear_27_1526)" stroke-opacity="0.4"/>
<rect x="18.2602" y="54.6787" width="2.42596" height="2.53485" transform="rotate(-36.7907 18.2602 54.6787)" stroke="url(#paint11_linear_27_1526)" stroke-opacity="0.4"/>
<rect x="27.9983" y="67.7" width="2.42596" height="2.53485" transform="rotate(-36.7907 27.9983 67.7)" stroke="url(#paint12_linear_27_1526)" stroke-opacity="0.4"/>
<rect x="37.7365" y="80.7222" width="2.42596" height="2.53485" transform="rotate(-36.7907 37.7365 80.7222)" stroke="url(#paint13_linear_27_1526)" stroke-opacity="0.4"/>
<rect x="47.4746" y="93.7437" width="2.42596" height="2.53485" transform="rotate(-36.7907 47.4746 93.7437)" stroke="url(#paint14_linear_27_1526)" stroke-opacity="0.4"/>
<rect x="57.2128" y="106.765" width="2.42596" height="2.53485" transform="rotate(-36.7907 57.2128 106.765)" stroke="url(#paint15_linear_27_1526)" stroke-opacity="0.4"/>
<rect x="66.9511" y="119.787" width="2.42596" height="2.53485" transform="rotate(-36.7907 66.9511 119.787)" stroke="url(#paint16_linear_27_1526)" stroke-opacity="0.4"/>
<rect x="76.6892" y="132.809" width="2.42596" height="2.53485" transform="rotate(-36.7907 76.6892 132.809)" stroke="url(#paint17_linear_27_1526)" stroke-opacity="0.4"/>
<rect x="70.9373" y="15.284" width="2.42596" height="2.53485" transform="rotate(-36.7907 70.9373 15.284)" stroke="url(#paint18_linear_27_1526)" stroke-opacity="0.4"/>
<rect x="80.6756" y="28.306" width="2.42596" height="2.53485" transform="rotate(-36.7907 80.6756 28.306)" stroke="url(#paint19_linear_27_1526)" stroke-opacity="0.4"/>
<rect x="35.8191" y="41.5473" width="2.42596" height="2.53485" transform="rotate(-36.7907 35.8191 41.5473)" stroke="url(#paint20_linear_27_1526)" stroke-opacity="0.4"/>
<rect x="45.5574" y="54.5688" width="2.42596" height="2.53485" transform="rotate(-36.7907 45.5574 54.5688)" stroke="url(#paint21_linear_27_1526)" stroke-opacity="0.4"/>
<rect x="55.2956" y="67.5907" width="2.42596" height="2.53485" transform="rotate(-36.7907 55.2956 67.5907)" stroke="url(#paint22_linear_27_1526)" stroke-opacity="0.4"/>
<rect x="65.0337" y="80.6122" width="2.42596" height="2.53485" transform="rotate(-36.7907 65.0337 80.6122)" stroke="url(#paint23_linear_27_1526)" stroke-opacity="0.4"/>
<rect x="74.772" y="93.6337" width="2.42596" height="2.53485" transform="rotate(-36.7907 74.772 93.6337)" stroke="url(#paint24_linear_27_1526)" stroke-opacity="0.4"/>
<rect x="84.5102" y="106.655" width="2.42596" height="2.53485" transform="rotate(-36.7907 84.5102 106.655)" stroke="url(#paint25_linear_27_1526)" stroke-opacity="0.4"/>
<defs>
<linearGradient id="paint0_linear_27_1526" x1="0.00109855" y1="67.9819" x2="4.17996" y2="68.5987" gradientUnits="userSpaceOnUse">
<stop offset="0.0326603" stop-color="white"/>
<stop offset="1" stop-color="white"/>
</linearGradient>
<linearGradient id="paint1_linear_27_1526" x1="9.73938" y1="81.004" x2="13.9182" y2="81.6208" gradientUnits="userSpaceOnUse">
<stop offset="0.0326603" stop-color="white"/>
<stop offset="1" stop-color="white"/>
</linearGradient>
<linearGradient id="paint2_linear_27_1526" x1="19.4775" y1="94.0255" x2="23.6564" y2="94.6422" gradientUnits="userSpaceOnUse">
<stop offset="0.0326603" stop-color="white"/>
<stop offset="1" stop-color="white"/>
</linearGradient>
<linearGradient id="paint3_linear_27_1526" x1="29.2157" y1="107.047" x2="33.3946" y2="107.664" gradientUnits="userSpaceOnUse">
<stop offset="0.0326603" stop-color="white"/>
<stop offset="1" stop-color="white"/>
</linearGradient>
<linearGradient id="paint4_linear_27_1526" x1="38.9539" y1="120.069" x2="43.1327" y2="120.686" gradientUnits="userSpaceOnUse">
<stop offset="0.0326603" stop-color="white"/>
<stop offset="1" stop-color="white"/>
</linearGradient>
<linearGradient id="paint5_linear_27_1526" x1="48.6921" y1="133.09" x2="52.871" y2="133.707" gradientUnits="userSpaceOnUse">
<stop offset="0.0326603" stop-color="white"/>
<stop offset="1" stop-color="white"/>
</linearGradient>
<linearGradient id="paint6_linear_27_1526" x1="58.4303" y1="146.112" x2="62.6092" y2="146.729" gradientUnits="userSpaceOnUse">
<stop offset="0.0326603" stop-color="white"/>
<stop offset="1" stop-color="white"/>
</linearGradient>
<linearGradient id="paint7_linear_27_1526" x1="52.6783" y1="28.5881" x2="56.8572" y2="29.2048" gradientUnits="userSpaceOnUse">
<stop offset="0.0326603" stop-color="white"/>
<stop offset="1" stop-color="white"/>
</linearGradient>
<linearGradient id="paint8_linear_27_1526" x1="62.4166" y1="41.6098" x2="66.5955" y2="42.2265" gradientUnits="userSpaceOnUse">
<stop offset="0.0326603" stop-color="white"/>
<stop offset="1" stop-color="white"/>
</linearGradient>
<linearGradient id="paint9_linear_27_1526" x1="72.1548" y1="54.6313" x2="76.3336" y2="55.248" gradientUnits="userSpaceOnUse">
<stop offset="0.0326603" stop-color="white"/>
<stop offset="1" stop-color="white"/>
</linearGradient>
<linearGradient id="paint10_linear_27_1526" x1="81.8929" y1="67.653" x2="86.0718" y2="68.2697" gradientUnits="userSpaceOnUse">
<stop offset="0.0326603" stop-color="white"/>
<stop offset="1" stop-color="white"/>
</linearGradient>
<linearGradient id="paint11_linear_27_1526" x1="17.5603" y1="54.8509" x2="21.7392" y2="55.4676" gradientUnits="userSpaceOnUse">
<stop offset="0.0326603" stop-color="white"/>
<stop offset="1" stop-color="white"/>
</linearGradient>
<linearGradient id="paint12_linear_27_1526" x1="27.2985" y1="67.8722" x2="31.4773" y2="68.4889" gradientUnits="userSpaceOnUse">
<stop offset="0.0326603" stop-color="white"/>
<stop offset="1" stop-color="white"/>
</linearGradient>
<linearGradient id="paint13_linear_27_1526" x1="37.0366" y1="80.8944" x2="41.2155" y2="81.5111" gradientUnits="userSpaceOnUse">
<stop offset="0.0326603" stop-color="white"/>
<stop offset="1" stop-color="white"/>
</linearGradient>
<linearGradient id="paint14_linear_27_1526" x1="46.7748" y1="93.9158" x2="50.9536" y2="94.5326" gradientUnits="userSpaceOnUse">
<stop offset="0.0326603" stop-color="white"/>
<stop offset="1" stop-color="white"/>
</linearGradient>
<linearGradient id="paint15_linear_27_1526" x1="56.5129" y1="106.938" x2="60.6918" y2="107.554" gradientUnits="userSpaceOnUse">
<stop offset="0.0326603" stop-color="white"/>
<stop offset="1" stop-color="white"/>
</linearGradient>
<linearGradient id="paint16_linear_27_1526" x1="66.2512" y1="119.959" x2="70.4301" y2="120.576" gradientUnits="userSpaceOnUse">
<stop offset="0.0326603" stop-color="white"/>
<stop offset="1" stop-color="white"/>
</linearGradient>
<linearGradient id="paint17_linear_27_1526" x1="75.9894" y1="132.981" x2="80.1682" y2="133.598" gradientUnits="userSpaceOnUse">
<stop offset="0.0326603" stop-color="white"/>
<stop offset="1" stop-color="white"/>
</linearGradient>
<linearGradient id="paint18_linear_27_1526" x1="70.2374" y1="15.4562" x2="74.4163" y2="16.0729" gradientUnits="userSpaceOnUse">
<stop offset="0.0326603" stop-color="white"/>
<stop offset="1" stop-color="white"/>
</linearGradient>
<linearGradient id="paint19_linear_27_1526" x1="79.9757" y1="28.4781" x2="84.1546" y2="29.0949" gradientUnits="userSpaceOnUse">
<stop offset="0.0326603" stop-color="white"/>
<stop offset="1" stop-color="white"/>
</linearGradient>
<linearGradient id="paint20_linear_27_1526" x1="35.1193" y1="41.7195" x2="39.2981" y2="42.3362" gradientUnits="userSpaceOnUse">
<stop offset="0.0326603" stop-color="white"/>
<stop offset="1" stop-color="white"/>
</linearGradient>
<linearGradient id="paint21_linear_27_1526" x1="44.8575" y1="54.741" x2="49.0364" y2="55.3577" gradientUnits="userSpaceOnUse">
<stop offset="0.0326603" stop-color="white"/>
<stop offset="1" stop-color="white"/>
</linearGradient>
<linearGradient id="paint22_linear_27_1526" x1="54.5957" y1="67.7629" x2="58.7746" y2="68.3796" gradientUnits="userSpaceOnUse">
<stop offset="0.0326603" stop-color="white"/>
<stop offset="1" stop-color="white"/>
</linearGradient>
<linearGradient id="paint23_linear_27_1526" x1="64.3339" y1="80.7844" x2="68.5127" y2="81.4011" gradientUnits="userSpaceOnUse">
<stop offset="0.0326603" stop-color="white"/>
<stop offset="1" stop-color="white"/>
</linearGradient>
<linearGradient id="paint24_linear_27_1526" x1="74.0721" y1="93.8059" x2="78.251" y2="94.4226" gradientUnits="userSpaceOnUse">
<stop offset="0.0326603" stop-color="white"/>
<stop offset="1" stop-color="white"/>
</linearGradient>
<linearGradient id="paint25_linear_27_1526" x1="83.8103" y1="106.828" x2="87.9892" y2="107.444" gradientUnits="userSpaceOnUse">
<stop offset="0.0326603" stop-color="white"/>
<stop offset="1" stop-color="white"/>
</linearGradient>
</defs>
</svg>
