<svg width="117" height="177" viewBox="0 0 117 177" fill="none" xmlns="http://www.w3.org/2000/svg">
<rect x="-0.694179" y="0.134593" width="3.19621" height="3.19621" transform="matrix(-0.828772 -0.559587 -0.559587 0.828772 116.257 173.108)" stroke="url(#paint0_linear_27_2155)" stroke-opacity="0.9"/>
<rect x="-0.694179" y="0.134593" width="3.19621" height="3.19621" transform="matrix(-0.828772 -0.559587 -0.559587 0.828772 114.294 32.0391)" stroke="url(#paint1_linear_27_2155)" stroke-opacity="0.9"/>
<rect x="-0.694179" y="0.134593" width="3.19621" height="3.19621" transform="matrix(-0.828772 -0.559587 -0.559587 0.828772 103.492 48.0364)" stroke="url(#paint2_linear_27_2155)" stroke-opacity="0.9"/>
<rect x="-0.694179" y="0.134593" width="3.19621" height="3.19621" transform="matrix(-0.828772 -0.559587 -0.559587 0.828772 92.6911 64.0337)" stroke="url(#paint3_linear_27_2155)" stroke-opacity="0.9"/>
<rect x="-0.694179" y="0.134593" width="3.19621" height="3.19621" transform="matrix(-0.828772 -0.559587 -0.559587 0.828772 81.8892 80.0317)" stroke="url(#paint4_linear_27_2155)" stroke-opacity="0.9"/>
<rect x="-0.694179" y="0.134593" width="3.19621" height="3.19621" transform="matrix(-0.828772 -0.559587 -0.559587 0.828772 71.0878 96.0291)" stroke="url(#paint5_linear_27_2155)" stroke-opacity="0.9"/>
<rect width="4.19621" height="4.19621" transform="matrix(-0.828772 -0.559587 -0.559587 0.828772 61.4805 112.392)" fill="url(#paint6_linear_27_2155)" fill-opacity="0.9"/>
<rect x="-0.694179" y="0.134593" width="3.19621" height="3.19621" transform="matrix(-0.828772 -0.559587 -0.559587 0.828772 60.2863 112.026)" stroke="url(#paint7_linear_27_2155)" stroke-opacity="0.9"/>
<rect x="-0.694179" y="0.134593" width="3.19621" height="3.19621" transform="matrix(-0.828772 -0.559587 -0.559587 0.828772 49.4851 128.024)" stroke="url(#paint8_linear_27_2155)" stroke-opacity="0.9"/>
<rect width="4.19621" height="4.19621" transform="matrix(-0.828772 -0.559587 -0.559587 0.828772 116.797 126.451)" fill="url(#paint9_linear_27_2155)" fill-opacity="0.9"/>
<rect x="-0.694179" y="0.134593" width="3.19621" height="3.19621" transform="matrix(-0.828772 -0.559587 -0.559587 0.828772 115.603 126.085)" stroke="url(#paint10_linear_27_2155)" stroke-opacity="0.9"/>
<rect x="-0.694179" y="0.134593" width="3.19621" height="3.19621" transform="matrix(-0.828772 -0.559587 -0.559587 0.828772 104.801 142.083)" stroke="url(#paint11_linear_27_2155)" stroke-opacity="0.9"/>
<rect x="-0.694179" y="0.134593" width="3.19621" height="3.19621" transform="matrix(-0.828772 -0.559587 -0.559587 0.828772 93.9995 158.08)" stroke="url(#paint12_linear_27_2155)" stroke-opacity="0.9"/>
<rect x="-0.694179" y="0.134593" width="3.19621" height="3.19621" transform="matrix(-0.828772 -0.559587 -0.559587 0.828772 92.0364 17.011)" stroke="url(#paint13_linear_27_2155)" stroke-opacity="0.9"/>
<rect x="-0.694179" y="0.134593" width="3.19621" height="3.19621" transform="matrix(-0.828772 -0.559587 -0.559587 0.828772 81.235 33.0086)" stroke="url(#paint14_linear_27_2155)" stroke-opacity="0.9"/>
<rect x="-0.694179" y="0.134593" width="3.19621" height="3.19621" transform="matrix(-0.828772 -0.559587 -0.559587 0.828772 70.4339 49.0056)" stroke="url(#paint15_linear_27_2155)" stroke-opacity="0.9"/>
<rect x="-0.694179" y="0.134593" width="3.19621" height="3.19621" transform="matrix(-0.828772 -0.559587 -0.559587 0.828772 59.632 65.0033)" stroke="url(#paint16_linear_27_2155)" stroke-opacity="0.9"/>
<rect x="-0.694179" y="0.134593" width="3.19621" height="3.19621" transform="matrix(-0.828772 -0.559587 -0.559587 0.828772 48.8306 81.001)" stroke="url(#paint17_linear_27_2155)" stroke-opacity="0.9"/>
<rect x="-0.694179" y="0.134593" width="3.19621" height="3.19621" transform="matrix(-0.828772 -0.559587 -0.559587 0.828772 38.0291 96.9983)" stroke="url(#paint18_linear_27_2155)" stroke-opacity="0.9"/>
<rect width="4.19621" height="4.19621" transform="matrix(-0.828772 -0.559587 -0.559587 0.828772 28.4218 113.361)" fill="url(#paint19_linear_27_2155)" fill-opacity="0.9"/>
<rect x="-0.694179" y="0.134593" width="3.19621" height="3.19621" transform="matrix(-0.828772 -0.559587 -0.559587 0.828772 27.2276 112.996)" stroke="url(#paint20_linear_27_2155)" stroke-opacity="0.9"/>
<rect x="-0.694179" y="0.134593" width="3.19621" height="3.19621" transform="matrix(-0.828772 -0.559587 -0.559587 0.828772 114.948 79.0622)" stroke="url(#paint21_linear_27_2155)" stroke-opacity="0.9"/>
<rect x="-0.694179" y="0.134593" width="3.19621" height="3.19621" transform="matrix(-0.828772 -0.559587 -0.559587 0.828772 104.146 95.0599)" stroke="url(#paint22_linear_27_2155)" stroke-opacity="0.9"/>
<rect width="4.19621" height="4.19621" transform="matrix(-0.828772 -0.559587 -0.559587 0.828772 94.5394 111.423)" fill="url(#paint23_linear_27_2155)" fill-opacity="0.9"/>
<rect x="-0.694179" y="0.134593" width="3.19621" height="3.19621" transform="matrix(-0.828772 -0.559587 -0.559587 0.828772 93.3452 111.057)" stroke="url(#paint24_linear_27_2155)" stroke-opacity="0.9"/>
<rect x="-0.694179" y="0.134593" width="3.19621" height="3.19621" transform="matrix(-0.828772 -0.559587 -0.559587 0.828772 82.5439 127.055)" stroke="url(#paint25_linear_27_2155)" stroke-opacity="0.9"/>
<rect x="-0.694179" y="0.134593" width="3.19621" height="3.19621" transform="matrix(-0.828772 -0.559587 -0.559587 0.828772 71.7423 143.052)" stroke="url(#paint26_linear_27_2155)" stroke-opacity="0.9"/>
<rect x="-0.694179" y="0.134593" width="3.19621" height="3.19621" transform="matrix(-0.828772 -0.559587 -0.559587 0.828772 69.7792 1.98316)" stroke="url(#paint27_linear_27_2155)" stroke-opacity="0.9"/>
<rect x="-0.694179" y="0.134593" width="3.19621" height="3.19621" transform="matrix(-0.828772 -0.559587 -0.559587 0.828772 58.9777 17.9805)" stroke="url(#paint28_linear_27_2155)" stroke-opacity="0.9"/>
<rect x="-0.694179" y="0.134593" width="3.19621" height="3.19621" transform="matrix(-0.828772 -0.559587 -0.559587 0.828772 48.1763 33.9778)" stroke="url(#paint29_linear_27_2155)" stroke-opacity="0.9"/>
<rect x="-0.694179" y="0.134593" width="3.19621" height="3.19621" transform="matrix(-0.828772 -0.559587 -0.559587 0.828772 37.3748 49.9752)" stroke="url(#paint30_linear_27_2155)" stroke-opacity="0.9"/>
<rect x="-0.694179" y="0.134593" width="3.19621" height="3.19621" transform="matrix(-0.828772 -0.559587 -0.559587 0.828772 26.5733 65.9728)" stroke="url(#paint31_linear_27_2155)" stroke-opacity="0.9"/>
<rect x="-0.694179" y="0.134593" width="3.19621" height="3.19621" transform="matrix(-0.828772 -0.559587 -0.559587 0.828772 15.7719 81.9702)" stroke="url(#paint32_linear_27_2155)" stroke-opacity="0.9"/>
<rect x="-0.694179" y="0.134593" width="3.19621" height="3.19621" transform="matrix(-0.828772 -0.559587 -0.559587 0.828772 4.97037 97.9678)" stroke="url(#paint33_linear_27_2155)" stroke-opacity="0.9"/>
<defs>
<linearGradient id="paint0_linear_27_2155" x1="-1.04769e-07" y1="0.324253" x2="5.11135" y2="1.10256" gradientUnits="userSpaceOnUse">
<stop offset="0.0326603" stop-color="#88A3E8"/>
<stop offset="1" stop-color="#C8A1D6"/>
</linearGradient>
<linearGradient id="paint1_linear_27_2155" x1="-1.04769e-07" y1="0.324253" x2="5.11135" y2="1.10256" gradientUnits="userSpaceOnUse">
<stop offset="0.0326603" stop-color="#88A3E8"/>
<stop offset="1" stop-color="#C8A1D6"/>
</linearGradient>
<linearGradient id="paint2_linear_27_2155" x1="-1.04769e-07" y1="0.324253" x2="5.11135" y2="1.10256" gradientUnits="userSpaceOnUse">
<stop offset="0.0326603" stop-color="#88A3E8"/>
<stop offset="1" stop-color="#C8A1D6"/>
</linearGradient>
<linearGradient id="paint3_linear_27_2155" x1="-1.04769e-07" y1="0.324253" x2="5.11135" y2="1.10256" gradientUnits="userSpaceOnUse">
<stop offset="0.0326603" stop-color="#88A3E8"/>
<stop offset="1" stop-color="#C8A1D6"/>
</linearGradient>
<linearGradient id="paint4_linear_27_2155" x1="-1.04769e-07" y1="0.324253" x2="5.11135" y2="1.10256" gradientUnits="userSpaceOnUse">
<stop offset="0.0326603" stop-color="#88A3E8"/>
<stop offset="1" stop-color="#C8A1D6"/>
</linearGradient>
<linearGradient id="paint5_linear_27_2155" x1="-1.04769e-07" y1="0.324253" x2="5.11135" y2="1.10256" gradientUnits="userSpaceOnUse">
<stop offset="0.0326603" stop-color="#88A3E8"/>
<stop offset="1" stop-color="#C8A1D6"/>
</linearGradient>
<linearGradient id="paint6_linear_27_2155" x1="-1.04769e-07" y1="0.324253" x2="5.11135" y2="1.10256" gradientUnits="userSpaceOnUse">
<stop offset="0.0326603" stop-color="#88A3E8"/>
<stop offset="1" stop-color="#C8A1D6"/>
</linearGradient>
<linearGradient id="paint7_linear_27_2155" x1="-1.04769e-07" y1="0.324253" x2="5.11135" y2="1.10256" gradientUnits="userSpaceOnUse">
<stop offset="0.0326603" stop-color="#88A3E8"/>
<stop offset="1" stop-color="#C8A1D6"/>
</linearGradient>
<linearGradient id="paint8_linear_27_2155" x1="-1.04769e-07" y1="0.324253" x2="5.11135" y2="1.10256" gradientUnits="userSpaceOnUse">
<stop offset="0.0326603" stop-color="#88A3E8"/>
<stop offset="1" stop-color="#C8A1D6"/>
</linearGradient>
<linearGradient id="paint9_linear_27_2155" x1="-1.04769e-07" y1="0.324253" x2="5.11135" y2="1.10256" gradientUnits="userSpaceOnUse">
<stop offset="0.0326603" stop-color="#88A3E8"/>
<stop offset="1" stop-color="#C8A1D6"/>
</linearGradient>
<linearGradient id="paint10_linear_27_2155" x1="-1.04769e-07" y1="0.324253" x2="5.11135" y2="1.10256" gradientUnits="userSpaceOnUse">
<stop offset="0.0326603" stop-color="#88A3E8"/>
<stop offset="1" stop-color="#C8A1D6"/>
</linearGradient>
<linearGradient id="paint11_linear_27_2155" x1="-1.04769e-07" y1="0.324253" x2="5.11135" y2="1.10256" gradientUnits="userSpaceOnUse">
<stop offset="0.0326603" stop-color="#88A3E8"/>
<stop offset="1" stop-color="#C8A1D6"/>
</linearGradient>
<linearGradient id="paint12_linear_27_2155" x1="-1.04769e-07" y1="0.324253" x2="5.11135" y2="1.10256" gradientUnits="userSpaceOnUse">
<stop offset="0.0326603" stop-color="#88A3E8"/>
<stop offset="1" stop-color="#C8A1D6"/>
</linearGradient>
<linearGradient id="paint13_linear_27_2155" x1="-1.04769e-07" y1="0.324253" x2="5.11135" y2="1.10256" gradientUnits="userSpaceOnUse">
<stop offset="0.0326603" stop-color="#88A3E8"/>
<stop offset="1" stop-color="#C8A1D6"/>
</linearGradient>
<linearGradient id="paint14_linear_27_2155" x1="-1.04769e-07" y1="0.324253" x2="5.11135" y2="1.10256" gradientUnits="userSpaceOnUse">
<stop offset="0.0326603" stop-color="#88A3E8"/>
<stop offset="1" stop-color="#C8A1D6"/>
</linearGradient>
<linearGradient id="paint15_linear_27_2155" x1="-1.04769e-07" y1="0.324253" x2="5.11135" y2="1.10256" gradientUnits="userSpaceOnUse">
<stop offset="0.0326603" stop-color="#88A3E8"/>
<stop offset="1" stop-color="#C8A1D6"/>
</linearGradient>
<linearGradient id="paint16_linear_27_2155" x1="-1.04769e-07" y1="0.324253" x2="5.11135" y2="1.10256" gradientUnits="userSpaceOnUse">
<stop offset="0.0326603" stop-color="#88A3E8"/>
<stop offset="1" stop-color="#C8A1D6"/>
</linearGradient>
<linearGradient id="paint17_linear_27_2155" x1="-1.04769e-07" y1="0.324253" x2="5.11135" y2="1.10256" gradientUnits="userSpaceOnUse">
<stop offset="0.0326603" stop-color="#88A3E8"/>
<stop offset="1" stop-color="#C8A1D6"/>
</linearGradient>
<linearGradient id="paint18_linear_27_2155" x1="-1.04769e-07" y1="0.324253" x2="5.11135" y2="1.10256" gradientUnits="userSpaceOnUse">
<stop offset="0.0326603" stop-color="#88A3E8"/>
<stop offset="1" stop-color="#C8A1D6"/>
</linearGradient>
<linearGradient id="paint19_linear_27_2155" x1="-1.04769e-07" y1="0.324253" x2="5.11135" y2="1.10256" gradientUnits="userSpaceOnUse">
<stop offset="0.0326603" stop-color="#88A3E8"/>
<stop offset="1" stop-color="#C8A1D6"/>
</linearGradient>
<linearGradient id="paint20_linear_27_2155" x1="-1.04769e-07" y1="0.324253" x2="5.11135" y2="1.10256" gradientUnits="userSpaceOnUse">
<stop offset="0.0326603" stop-color="#88A3E8"/>
<stop offset="1" stop-color="#C8A1D6"/>
</linearGradient>
<linearGradient id="paint21_linear_27_2155" x1="-1.04769e-07" y1="0.324253" x2="5.11135" y2="1.10256" gradientUnits="userSpaceOnUse">
<stop offset="0.0326603" stop-color="#88A3E8"/>
<stop offset="1" stop-color="#C8A1D6"/>
</linearGradient>
<linearGradient id="paint22_linear_27_2155" x1="-1.04769e-07" y1="0.324253" x2="5.11135" y2="1.10256" gradientUnits="userSpaceOnUse">
<stop offset="0.0326603" stop-color="#88A3E8"/>
<stop offset="1" stop-color="#C8A1D6"/>
</linearGradient>
<linearGradient id="paint23_linear_27_2155" x1="-1.04769e-07" y1="0.324253" x2="5.11135" y2="1.10256" gradientUnits="userSpaceOnUse">
<stop offset="0.0326603" stop-color="#88A3E8"/>
<stop offset="1" stop-color="#C8A1D6"/>
</linearGradient>
<linearGradient id="paint24_linear_27_2155" x1="-1.04769e-07" y1="0.324253" x2="5.11135" y2="1.10256" gradientUnits="userSpaceOnUse">
<stop offset="0.0326603" stop-color="#88A3E8"/>
<stop offset="1" stop-color="#C8A1D6"/>
</linearGradient>
<linearGradient id="paint25_linear_27_2155" x1="-1.04769e-07" y1="0.324253" x2="5.11135" y2="1.10256" gradientUnits="userSpaceOnUse">
<stop offset="0.0326603" stop-color="#88A3E8"/>
<stop offset="1" stop-color="#C8A1D6"/>
</linearGradient>
<linearGradient id="paint26_linear_27_2155" x1="-1.04769e-07" y1="0.324253" x2="5.11135" y2="1.10256" gradientUnits="userSpaceOnUse">
<stop offset="0.0326603" stop-color="#88A3E8"/>
<stop offset="1" stop-color="#C8A1D6"/>
</linearGradient>
<linearGradient id="paint27_linear_27_2155" x1="-1.04769e-07" y1="0.324253" x2="5.11135" y2="1.10256" gradientUnits="userSpaceOnUse">
<stop offset="0.0326603" stop-color="#88A3E8"/>
<stop offset="1" stop-color="#C8A1D6"/>
</linearGradient>
<linearGradient id="paint28_linear_27_2155" x1="-1.04769e-07" y1="0.324253" x2="5.11135" y2="1.10256" gradientUnits="userSpaceOnUse">
<stop offset="0.0326603" stop-color="#88A3E8"/>
<stop offset="1" stop-color="#C8A1D6"/>
</linearGradient>
<linearGradient id="paint29_linear_27_2155" x1="-1.04769e-07" y1="0.324253" x2="5.11135" y2="1.10256" gradientUnits="userSpaceOnUse">
<stop offset="0.0326603" stop-color="#88A3E8"/>
<stop offset="1" stop-color="#C8A1D6"/>
</linearGradient>
<linearGradient id="paint30_linear_27_2155" x1="-1.04769e-07" y1="0.324253" x2="5.11135" y2="1.10256" gradientUnits="userSpaceOnUse">
<stop offset="0.0326603" stop-color="#88A3E8"/>
<stop offset="1" stop-color="#C8A1D6"/>
</linearGradient>
<linearGradient id="paint31_linear_27_2155" x1="-1.04769e-07" y1="0.324253" x2="5.11135" y2="1.10256" gradientUnits="userSpaceOnUse">
<stop offset="0.0326603" stop-color="#88A3E8"/>
<stop offset="1" stop-color="#C8A1D6"/>
</linearGradient>
<linearGradient id="paint32_linear_27_2155" x1="-1.04769e-07" y1="0.324253" x2="5.11135" y2="1.10256" gradientUnits="userSpaceOnUse">
<stop offset="0.0326603" stop-color="#88A3E8"/>
<stop offset="1" stop-color="#C8A1D6"/>
</linearGradient>
<linearGradient id="paint33_linear_27_2155" x1="-1.04769e-07" y1="0.324253" x2="5.11135" y2="1.10256" gradientUnits="userSpaceOnUse">
<stop offset="0.0326603" stop-color="#88A3E8"/>
<stop offset="1" stop-color="#C8A1D6"/>
</linearGradient>
</defs>
</svg>
