<svg width="247" height="240" viewBox="0 0 247 240" fill="none" xmlns="http://www.w3.org/2000/svg">
<rect x="0.694729" y="105.124" width="4.68543" height="4.68543" transform="rotate(-34.0272 0.694729 105.124)" stroke="url(#paint0_linear_27_2242)" stroke-opacity="0.9"/>
<rect x="15.3288" y="126.799" width="4.68543" height="4.68543" transform="rotate(-34.0272 15.3288 126.799)" stroke="url(#paint1_linear_27_2242)" stroke-opacity="0.9"/>
<rect x="29.9633" y="148.474" width="4.68543" height="4.68543" transform="rotate(-34.0272 29.9633 148.474)" stroke="url(#paint2_linear_27_2242)" stroke-opacity="0.9"/>
<rect x="44.599" y="170.149" width="4.68543" height="4.68543" transform="rotate(-34.0272 44.599 170.149)" stroke="url(#paint3_linear_27_2242)" stroke-opacity="0.9"/>
<rect x="59.2335" y="191.824" width="4.68543" height="4.68543" transform="rotate(-34.0272 59.2335 191.824)" stroke="url(#paint4_linear_27_2242)" stroke-opacity="0.9"/>
<rect x="73.8684" y="213.498" width="4.68543" height="4.68543" transform="rotate(-34.0272 73.8684 213.498)" stroke="url(#paint5_linear_27_2242)" stroke-opacity="0.9"/>
<rect x="88.5033" y="235.173" width="4.68543" height="4.68543" transform="rotate(-34.0272 88.5033 235.173)" stroke="url(#paint6_linear_27_2242)" stroke-opacity="0.9"/>
<rect x="91.1633" y="44.0395" width="4.68543" height="4.68543" transform="rotate(-34.0272 91.1633 44.0395)" stroke="url(#paint7_linear_27_2242)" stroke-opacity="0.9"/>
<rect x="105.797" y="65.714" width="4.68543" height="4.68543" transform="rotate(-34.0272 105.797 65.714)" stroke="url(#paint8_linear_27_2242)" stroke-opacity="0.9"/>
<rect x="120.433" y="87.3884" width="4.68543" height="4.68543" transform="rotate(-34.0272 120.433 87.3884)" stroke="url(#paint9_linear_27_2242)" stroke-opacity="0.9"/>
<rect x="135.068" y="109.064" width="4.68543" height="4.68543" transform="rotate(-34.0272 135.068 109.064)" stroke="url(#paint10_linear_27_2242)" stroke-opacity="0.9"/>
<rect x="149.702" y="130.739" width="4.68543" height="4.68543" transform="rotate(-34.0272 149.702 130.739)" stroke="url(#paint11_linear_27_2242)" stroke-opacity="0.9"/>
<rect x="163.643" y="152.279" width="5.68543" height="5.68543" transform="rotate(-34.0272 163.643 152.279)" fill="url(#paint12_linear_27_2242)" fill-opacity="0.9"/>
<rect x="164.337" y="152.414" width="4.68543" height="4.68543" transform="rotate(-34.0272 164.337 152.414)" stroke="url(#paint13_linear_27_2242)" stroke-opacity="0.9"/>
<rect x="178.972" y="174.089" width="4.68543" height="4.68543" transform="rotate(-34.0272 178.972 174.089)" stroke="url(#paint14_linear_27_2242)" stroke-opacity="0.9"/>
<rect x="30.8502" y="84.7625" width="4.68543" height="4.68543" transform="rotate(-34.0272 30.8502 84.7625)" stroke="url(#paint15_linear_27_2242)" stroke-opacity="0.9"/>
<rect x="45.4851" y="106.437" width="4.68543" height="4.68543" transform="rotate(-34.0272 45.4851 106.437)" stroke="url(#paint16_linear_27_2242)" stroke-opacity="0.9"/>
<rect x="60.1197" y="128.112" width="4.68543" height="4.68543" transform="rotate(-34.0272 60.1197 128.112)" stroke="url(#paint17_linear_27_2242)" stroke-opacity="0.9"/>
<rect x="74.7553" y="149.787" width="4.68543" height="4.68543" transform="rotate(-34.0272 74.7553 149.787)" stroke="url(#paint18_linear_27_2242)" stroke-opacity="0.9"/>
<rect x="88.6953" y="171.327" width="5.68543" height="5.68543" transform="rotate(-34.0272 88.6953 171.327)" fill="url(#paint19_linear_27_2242)" fill-opacity="0.9"/>
<rect x="89.3894" y="171.462" width="4.68543" height="4.68543" transform="rotate(-34.0272 89.3894 171.462)" stroke="url(#paint20_linear_27_2242)" stroke-opacity="0.9"/>
<rect x="104.025" y="193.137" width="4.68543" height="4.68543" transform="rotate(-34.0272 104.025 193.137)" stroke="url(#paint21_linear_27_2242)" stroke-opacity="0.9"/>
<rect x="118.66" y="214.812" width="4.68543" height="4.68543" transform="rotate(-34.0272 118.66 214.812)" stroke="url(#paint22_linear_27_2242)" stroke-opacity="0.9"/>
<rect x="121.319" y="23.6781" width="4.68543" height="4.68543" transform="rotate(-34.0272 121.319 23.6781)" stroke="url(#paint23_linear_27_2242)" stroke-opacity="0.9"/>
<rect x="135.954" y="45.3525" width="4.68543" height="4.68543" transform="rotate(-34.0272 135.954 45.3525)" stroke="url(#paint24_linear_27_2242)" stroke-opacity="0.9"/>
<rect x="150.589" y="67.027" width="4.68543" height="4.68543" transform="rotate(-34.0272 150.589 67.027)" stroke="url(#paint25_linear_27_2242)" stroke-opacity="0.9"/>
<rect x="165.224" y="88.7022" width="4.68543" height="4.68543" transform="rotate(-34.0272 165.224 88.7022)" stroke="url(#paint26_linear_27_2242)" stroke-opacity="0.9"/>
<rect x="179.859" y="110.377" width="4.68543" height="4.68543" transform="rotate(-34.0272 179.859 110.377)" stroke="url(#paint27_linear_27_2242)" stroke-opacity="0.9"/>
<rect x="194.494" y="132.052" width="4.68543" height="4.68543" transform="rotate(-34.0272 194.494 132.052)" stroke="url(#paint28_linear_27_2242)" stroke-opacity="0.9"/>
<rect x="208.434" y="153.593" width="5.68543" height="5.68543" transform="rotate(-34.0272 208.434 153.593)" fill="url(#paint29_linear_27_2242)" fill-opacity="0.9"/>
<rect x="209.128" y="153.727" width="4.68543" height="4.68543" transform="rotate(-34.0272 209.128 153.727)" stroke="url(#paint30_linear_27_2242)" stroke-opacity="0.9"/>
<rect x="61.0062" y="64.401" width="4.68543" height="4.68543" transform="rotate(-34.0272 61.0062 64.401)" stroke="url(#paint31_linear_27_2242)" stroke-opacity="0.9"/>
<rect x="75.6414" y="86.0759" width="4.68543" height="4.68543" transform="rotate(-34.0272 75.6414 86.0759)" stroke="url(#paint32_linear_27_2242)" stroke-opacity="0.9"/>
<rect x="90.2763" y="107.751" width="4.68543" height="4.68543" transform="rotate(-34.0272 90.2763 107.751)" stroke="url(#paint33_linear_27_2242)" stroke-opacity="0.9"/>
<rect x="104.911" y="129.426" width="4.68543" height="4.68543" transform="rotate(-34.0272 104.911 129.426)" stroke="url(#paint34_linear_27_2242)" stroke-opacity="0.9"/>
<rect x="118.852" y="150.966" width="5.68543" height="5.68543" transform="rotate(-34.0272 118.852 150.966)" fill="url(#paint35_linear_27_2242)" fill-opacity="0.9"/>
<rect x="119.547" y="151.1" width="4.68543" height="4.68543" transform="rotate(-34.0272 119.547 151.1)" stroke="url(#paint36_linear_27_2242)" stroke-opacity="0.9"/>
<rect x="134.181" y="172.775" width="4.68543" height="4.68543" transform="rotate(-34.0272 134.181 172.775)" stroke="url(#paint37_linear_27_2242)" stroke-opacity="0.9"/>
<rect x="148.816" y="194.45" width="4.68543" height="4.68543" transform="rotate(-34.0272 148.816 194.45)" stroke="url(#paint38_linear_27_2242)" stroke-opacity="0.9"/>
<rect x="151.475" y="3.31659" width="4.68543" height="4.68543" transform="rotate(-34.0272 151.475 3.31659)" stroke="url(#paint39_linear_27_2242)" stroke-opacity="0.9"/>
<rect x="166.11" y="24.991" width="4.68543" height="4.68543" transform="rotate(-34.0272 166.11 24.991)" stroke="url(#paint40_linear_27_2242)" stroke-opacity="0.9"/>
<rect x="180.745" y="46.6663" width="4.68543" height="4.68543" transform="rotate(-34.0272 180.745 46.6663)" stroke="url(#paint41_linear_27_2242)" stroke-opacity="0.9"/>
<rect x="195.381" y="68.3407" width="4.68543" height="4.68543" transform="rotate(-34.0272 195.381 68.3407)" stroke="url(#paint42_linear_27_2242)" stroke-opacity="0.9"/>
<rect x="210.015" y="90.016" width="4.68543" height="4.68543" transform="rotate(-34.0272 210.015 90.016)" stroke="url(#paint43_linear_27_2242)" stroke-opacity="0.9"/>
<rect x="224.65" y="111.69" width="4.68543" height="4.68543" transform="rotate(-34.0272 224.65 111.69)" stroke="url(#paint44_linear_27_2242)" stroke-opacity="0.9"/>
<rect x="239.285" y="133.366" width="4.68543" height="4.68543" transform="rotate(-34.0272 239.285 133.366)" stroke="url(#paint45_linear_27_2242)" stroke-opacity="0.9"/>
<defs>
<linearGradient id="paint0_linear_27_2242" x1="0.000549174" y1="105.429" x2="6.9259" y2="106.483" gradientUnits="userSpaceOnUse">
<stop offset="0.0326603" stop-color="#88A3E8"/>
<stop offset="1" stop-color="#C8A1D6"/>
</linearGradient>
<linearGradient id="paint1_linear_27_2242" x1="14.6346" y1="127.104" x2="21.56" y2="128.158" gradientUnits="userSpaceOnUse">
<stop offset="0.0326603" stop-color="#88A3E8"/>
<stop offset="1" stop-color="#C8A1D6"/>
</linearGradient>
<linearGradient id="paint2_linear_27_2242" x1="29.2692" y1="148.778" x2="36.1945" y2="149.833" gradientUnits="userSpaceOnUse">
<stop offset="0.0326603" stop-color="#88A3E8"/>
<stop offset="1" stop-color="#C8A1D6"/>
</linearGradient>
<linearGradient id="paint3_linear_27_2242" x1="43.9048" y1="170.454" x2="50.8302" y2="171.509" gradientUnits="userSpaceOnUse">
<stop offset="0.0326603" stop-color="#88A3E8"/>
<stop offset="1" stop-color="#C8A1D6"/>
</linearGradient>
<linearGradient id="paint4_linear_27_2242" x1="58.5394" y1="192.128" x2="65.4647" y2="193.183" gradientUnits="userSpaceOnUse">
<stop offset="0.0326603" stop-color="#88A3E8"/>
<stop offset="1" stop-color="#C8A1D6"/>
</linearGradient>
<linearGradient id="paint5_linear_27_2242" x1="73.1743" y1="213.803" x2="80.0996" y2="214.857" gradientUnits="userSpaceOnUse">
<stop offset="0.0326603" stop-color="#88A3E8"/>
<stop offset="1" stop-color="#C8A1D6"/>
</linearGradient>
<linearGradient id="paint6_linear_27_2242" x1="87.8091" y1="235.478" x2="94.7345" y2="236.533" gradientUnits="userSpaceOnUse">
<stop offset="0.0326603" stop-color="#88A3E8"/>
<stop offset="1" stop-color="#C8A1D6"/>
</linearGradient>
<linearGradient id="paint7_linear_27_2242" x1="90.4691" y1="44.3443" x2="97.3945" y2="45.3988" gradientUnits="userSpaceOnUse">
<stop offset="0.0326603" stop-color="#88A3E8"/>
<stop offset="1" stop-color="#C8A1D6"/>
</linearGradient>
<linearGradient id="paint8_linear_27_2242" x1="105.103" y1="66.0187" x2="112.029" y2="67.0733" gradientUnits="userSpaceOnUse">
<stop offset="0.0326603" stop-color="#88A3E8"/>
<stop offset="1" stop-color="#C8A1D6"/>
</linearGradient>
<linearGradient id="paint9_linear_27_2242" x1="119.739" y1="87.6932" x2="126.664" y2="88.7477" gradientUnits="userSpaceOnUse">
<stop offset="0.0326603" stop-color="#88A3E8"/>
<stop offset="1" stop-color="#C8A1D6"/>
</linearGradient>
<linearGradient id="paint10_linear_27_2242" x1="134.373" y1="109.369" x2="141.299" y2="110.423" gradientUnits="userSpaceOnUse">
<stop offset="0.0326603" stop-color="#88A3E8"/>
<stop offset="1" stop-color="#C8A1D6"/>
</linearGradient>
<linearGradient id="paint11_linear_27_2242" x1="149.008" y1="131.044" x2="155.934" y2="132.098" gradientUnits="userSpaceOnUse">
<stop offset="0.0326603" stop-color="#88A3E8"/>
<stop offset="1" stop-color="#C8A1D6"/>
</linearGradient>
<linearGradient id="paint12_linear_27_2242" x1="163.643" y1="152.718" x2="170.569" y2="153.773" gradientUnits="userSpaceOnUse">
<stop offset="0.0326603" stop-color="#88A3E8"/>
<stop offset="1" stop-color="#C8A1D6"/>
</linearGradient>
<linearGradient id="paint13_linear_27_2242" x1="163.643" y1="152.718" x2="170.569" y2="153.773" gradientUnits="userSpaceOnUse">
<stop offset="0.0326603" stop-color="#88A3E8"/>
<stop offset="1" stop-color="#C8A1D6"/>
</linearGradient>
<linearGradient id="paint14_linear_27_2242" x1="178.278" y1="174.393" x2="185.203" y2="175.448" gradientUnits="userSpaceOnUse">
<stop offset="0.0326603" stop-color="#88A3E8"/>
<stop offset="1" stop-color="#C8A1D6"/>
</linearGradient>
<linearGradient id="paint15_linear_27_2242" x1="30.1561" y1="85.0672" x2="37.0814" y2="86.1218" gradientUnits="userSpaceOnUse">
<stop offset="0.0326603" stop-color="#88A3E8"/>
<stop offset="1" stop-color="#C8A1D6"/>
</linearGradient>
<linearGradient id="paint16_linear_27_2242" x1="44.791" y1="106.742" x2="51.7163" y2="107.797" gradientUnits="userSpaceOnUse">
<stop offset="0.0326603" stop-color="#88A3E8"/>
<stop offset="1" stop-color="#C8A1D6"/>
</linearGradient>
<linearGradient id="paint17_linear_27_2242" x1="59.4255" y1="128.417" x2="66.3508" y2="129.471" gradientUnits="userSpaceOnUse">
<stop offset="0.0326603" stop-color="#88A3E8"/>
<stop offset="1" stop-color="#C8A1D6"/>
</linearGradient>
<linearGradient id="paint18_linear_27_2242" x1="74.0612" y1="150.092" x2="80.9865" y2="151.146" gradientUnits="userSpaceOnUse">
<stop offset="0.0326603" stop-color="#88A3E8"/>
<stop offset="1" stop-color="#C8A1D6"/>
</linearGradient>
<linearGradient id="paint19_linear_27_2242" x1="88.6953" y1="171.767" x2="95.6206" y2="172.821" gradientUnits="userSpaceOnUse">
<stop offset="0.0326603" stop-color="#88A3E8"/>
<stop offset="1" stop-color="#C8A1D6"/>
</linearGradient>
<linearGradient id="paint20_linear_27_2242" x1="88.6953" y1="171.767" x2="95.6206" y2="172.821" gradientUnits="userSpaceOnUse">
<stop offset="0.0326603" stop-color="#88A3E8"/>
<stop offset="1" stop-color="#C8A1D6"/>
</linearGradient>
<linearGradient id="paint21_linear_27_2242" x1="103.331" y1="193.441" x2="110.256" y2="194.496" gradientUnits="userSpaceOnUse">
<stop offset="0.0326603" stop-color="#88A3E8"/>
<stop offset="1" stop-color="#C8A1D6"/>
</linearGradient>
<linearGradient id="paint22_linear_27_2242" x1="117.965" y1="215.117" x2="124.891" y2="216.171" gradientUnits="userSpaceOnUse">
<stop offset="0.0326603" stop-color="#88A3E8"/>
<stop offset="1" stop-color="#C8A1D6"/>
</linearGradient>
<linearGradient id="paint23_linear_27_2242" x1="120.625" y1="23.9828" x2="127.55" y2="25.0373" gradientUnits="userSpaceOnUse">
<stop offset="0.0326603" stop-color="#88A3E8"/>
<stop offset="1" stop-color="#C8A1D6"/>
</linearGradient>
<linearGradient id="paint24_linear_27_2242" x1="135.26" y1="45.6572" x2="142.185" y2="46.7118" gradientUnits="userSpaceOnUse">
<stop offset="0.0326603" stop-color="#88A3E8"/>
<stop offset="1" stop-color="#C8A1D6"/>
</linearGradient>
<linearGradient id="paint25_linear_27_2242" x1="149.894" y1="67.3317" x2="156.82" y2="68.3862" gradientUnits="userSpaceOnUse">
<stop offset="0.0326603" stop-color="#88A3E8"/>
<stop offset="1" stop-color="#C8A1D6"/>
</linearGradient>
<linearGradient id="paint26_linear_27_2242" x1="164.53" y1="89.0069" x2="171.455" y2="90.0615" gradientUnits="userSpaceOnUse">
<stop offset="0.0326603" stop-color="#88A3E8"/>
<stop offset="1" stop-color="#C8A1D6"/>
</linearGradient>
<linearGradient id="paint27_linear_27_2242" x1="179.165" y1="110.682" x2="186.09" y2="111.737" gradientUnits="userSpaceOnUse">
<stop offset="0.0326603" stop-color="#88A3E8"/>
<stop offset="1" stop-color="#C8A1D6"/>
</linearGradient>
<linearGradient id="paint28_linear_27_2242" x1="193.8" y1="132.357" x2="200.725" y2="133.412" gradientUnits="userSpaceOnUse">
<stop offset="0.0326603" stop-color="#88A3E8"/>
<stop offset="1" stop-color="#C8A1D6"/>
</linearGradient>
<linearGradient id="paint29_linear_27_2242" x1="208.434" y1="154.032" x2="215.359" y2="155.086" gradientUnits="userSpaceOnUse">
<stop offset="0.0326603" stop-color="#88A3E8"/>
<stop offset="1" stop-color="#C8A1D6"/>
</linearGradient>
<linearGradient id="paint30_linear_27_2242" x1="208.434" y1="154.032" x2="215.359" y2="155.086" gradientUnits="userSpaceOnUse">
<stop offset="0.0326603" stop-color="#88A3E8"/>
<stop offset="1" stop-color="#C8A1D6"/>
</linearGradient>
<linearGradient id="paint31_linear_27_2242" x1="60.312" y1="64.7058" x2="67.2374" y2="65.7603" gradientUnits="userSpaceOnUse">
<stop offset="0.0326603" stop-color="#88A3E8"/>
<stop offset="1" stop-color="#C8A1D6"/>
</linearGradient>
<linearGradient id="paint32_linear_27_2242" x1="74.9473" y1="86.3806" x2="81.8726" y2="87.4351" gradientUnits="userSpaceOnUse">
<stop offset="0.0326603" stop-color="#88A3E8"/>
<stop offset="1" stop-color="#C8A1D6"/>
</linearGradient>
<linearGradient id="paint33_linear_27_2242" x1="89.5822" y1="108.055" x2="96.5075" y2="109.11" gradientUnits="userSpaceOnUse">
<stop offset="0.0326603" stop-color="#88A3E8"/>
<stop offset="1" stop-color="#C8A1D6"/>
</linearGradient>
<linearGradient id="paint34_linear_27_2242" x1="104.217" y1="129.73" x2="111.142" y2="130.785" gradientUnits="userSpaceOnUse">
<stop offset="0.0326603" stop-color="#88A3E8"/>
<stop offset="1" stop-color="#C8A1D6"/>
</linearGradient>
<linearGradient id="paint35_linear_27_2242" x1="118.852" y1="151.405" x2="125.778" y2="152.46" gradientUnits="userSpaceOnUse">
<stop offset="0.0326603" stop-color="#88A3E8"/>
<stop offset="1" stop-color="#C8A1D6"/>
</linearGradient>
<linearGradient id="paint36_linear_27_2242" x1="118.852" y1="151.405" x2="125.778" y2="152.46" gradientUnits="userSpaceOnUse">
<stop offset="0.0326603" stop-color="#88A3E8"/>
<stop offset="1" stop-color="#C8A1D6"/>
</linearGradient>
<linearGradient id="paint37_linear_27_2242" x1="133.486" y1="173.08" x2="140.412" y2="174.134" gradientUnits="userSpaceOnUse">
<stop offset="0.0326603" stop-color="#88A3E8"/>
<stop offset="1" stop-color="#C8A1D6"/>
</linearGradient>
<linearGradient id="paint38_linear_27_2242" x1="148.122" y1="194.755" x2="155.047" y2="195.809" gradientUnits="userSpaceOnUse">
<stop offset="0.0326603" stop-color="#88A3E8"/>
<stop offset="1" stop-color="#C8A1D6"/>
</linearGradient>
<linearGradient id="paint39_linear_27_2242" x1="150.781" y1="3.62133" x2="157.707" y2="4.67586" gradientUnits="userSpaceOnUse">
<stop offset="0.0326603" stop-color="#88A3E8"/>
<stop offset="1" stop-color="#C8A1D6"/>
</linearGradient>
<linearGradient id="paint40_linear_27_2242" x1="165.416" y1="25.2958" x2="172.342" y2="26.3503" gradientUnits="userSpaceOnUse">
<stop offset="0.0326603" stop-color="#88A3E8"/>
<stop offset="1" stop-color="#C8A1D6"/>
</linearGradient>
<linearGradient id="paint41_linear_27_2242" x1="180.051" y1="46.971" x2="186.976" y2="48.0255" gradientUnits="userSpaceOnUse">
<stop offset="0.0326603" stop-color="#88A3E8"/>
<stop offset="1" stop-color="#C8A1D6"/>
</linearGradient>
<linearGradient id="paint42_linear_27_2242" x1="194.686" y1="68.6455" x2="201.612" y2="69.7" gradientUnits="userSpaceOnUse">
<stop offset="0.0326603" stop-color="#88A3E8"/>
<stop offset="1" stop-color="#C8A1D6"/>
</linearGradient>
<linearGradient id="paint43_linear_27_2242" x1="209.321" y1="90.3207" x2="216.246" y2="91.3752" gradientUnits="userSpaceOnUse">
<stop offset="0.0326603" stop-color="#88A3E8"/>
<stop offset="1" stop-color="#C8A1D6"/>
</linearGradient>
<linearGradient id="paint44_linear_27_2242" x1="223.956" y1="111.995" x2="230.881" y2="113.05" gradientUnits="userSpaceOnUse">
<stop offset="0.0326603" stop-color="#88A3E8"/>
<stop offset="1" stop-color="#C8A1D6"/>
</linearGradient>
<linearGradient id="paint45_linear_27_2242" x1="238.591" y1="133.67" x2="245.516" y2="134.725" gradientUnits="userSpaceOnUse">
<stop offset="0.0326603" stop-color="#88A3E8"/>
<stop offset="1" stop-color="#C8A1D6"/>
</linearGradient>
</defs>
</svg>
