<svg width="92" height="18" viewBox="0 0 92 18" fill="none" xmlns="http://www.w3.org/2000/svg">
<g filter="url(#filter0_d_40_2868)">
<path d="M16.5042 5.75243H10.5868L8.7521 0L6.91744 5.75243H1L5.78046 9.30235L3.97164 15.0289L8.7521 11.4789L13.5326 15.0289L11.6979 9.27644L16.5042 5.75243Z" fill="#D0CDCD"/>
</g>
<g filter="url(#filter1_d_40_2868)">
<path d="M35.4119 5.75243H29.3501L27.4707 0L25.5913 5.75243H19.5295L24.4266 9.30235L22.5737 15.0289L27.4707 11.4789L32.3678 15.0289L30.4884 9.27644L35.4119 5.75243Z" fill="#D0CDCD"/>
</g>
<g filter="url(#filter2_d_40_2868)">
<path d="M53.9412 5.75243H47.8794L46 0L44.1206 5.75243H38.0588L42.9559 9.30235L41.103 15.0289L46 11.4789L50.8971 15.0289L49.0177 9.27644L53.9412 5.75243Z" fill="#D0CDCD"/>
</g>
<g filter="url(#filter3_d_40_2868)">
<path d="M65.9336 5.90771L66.0462 6.25243H66.4088H70.913L67.2561 8.86986L66.958 9.08324L67.0718 9.43172L68.4729 13.72L64.8229 11.0741L64.5294 10.8614L64.236 11.0741L60.58 13.7244L61.961 9.45628L62.0729 9.11071L61.7788 8.89753L58.1299 6.25243H62.65H63.0127L63.1253 5.90771L64.5294 1.60999L65.9336 5.90771Z" stroke="#C8C8C8" shape-rendering="crispEdges"/>
</g>
<g filter="url(#filter4_d_40_2868)">
<path d="M84.6061 5.90436L84.7171 6.25243H85.0825H89.4724L85.898 8.87321L85.608 9.08582L85.7173 9.42837L87.0803 13.7021L83.5459 11.0775L83.2478 10.8562L82.9497 11.0775L79.4094 13.7065L80.753 9.45295L80.8603 9.11329L80.5743 8.90093L77.0077 6.25243H81.4132H81.7785L81.8895 5.90436L83.2478 1.64551L84.6061 5.90436Z" stroke="#C8C8C8" shape-rendering="crispEdges"/>
</g>
<defs>
<filter id="filter0_d_40_2868" x="0" y="0" width="17.5042" height="17.0289" filterUnits="userSpaceOnUse" color-interpolation-filters="sRGB">
<feFlood flood-opacity="0" result="BackgroundImageFix"/>
<feColorMatrix in="SourceAlpha" type="matrix" values="0 0 0 0 0 0 0 0 0 0 0 0 0 0 0 0 0 0 127 0" result="hardAlpha"/>
<feOffset dy="1"/>
<feGaussianBlur stdDeviation="0.5"/>
<feComposite in2="hardAlpha" operator="out"/>
<feColorMatrix type="matrix" values="0 0 0 0 0 0 0 0 0 0 0 0 0 0 0 0 0 0 0.25 0"/>
<feBlend mode="normal" in2="BackgroundImageFix" result="effect1_dropShadow_40_2868"/>
<feBlend mode="normal" in="SourceGraphic" in2="effect1_dropShadow_40_2868" result="shape"/>
</filter>
<filter id="filter1_d_40_2868" x="18.5295" y="0" width="17.8823" height="17.0289" filterUnits="userSpaceOnUse" color-interpolation-filters="sRGB">
<feFlood flood-opacity="0" result="BackgroundImageFix"/>
<feColorMatrix in="SourceAlpha" type="matrix" values="0 0 0 0 0 0 0 0 0 0 0 0 0 0 0 0 0 0 127 0" result="hardAlpha"/>
<feOffset dy="1"/>
<feGaussianBlur stdDeviation="0.5"/>
<feComposite in2="hardAlpha" operator="out"/>
<feColorMatrix type="matrix" values="0 0 0 0 0 0 0 0 0 0 0 0 0 0 0 0 0 0 0.25 0"/>
<feBlend mode="normal" in2="BackgroundImageFix" result="effect1_dropShadow_40_2868"/>
<feBlend mode="normal" in="SourceGraphic" in2="effect1_dropShadow_40_2868" result="shape"/>
</filter>
<filter id="filter2_d_40_2868" x="37.0588" y="0" width="17.8823" height="17.0289" filterUnits="userSpaceOnUse" color-interpolation-filters="sRGB">
<feFlood flood-opacity="0" result="BackgroundImageFix"/>
<feColorMatrix in="SourceAlpha" type="matrix" values="0 0 0 0 0 0 0 0 0 0 0 0 0 0 0 0 0 0 127 0" result="hardAlpha"/>
<feOffset dy="1"/>
<feGaussianBlur stdDeviation="0.5"/>
<feComposite in2="hardAlpha" operator="out"/>
<feColorMatrix type="matrix" values="0 0 0 0 0 0 0 0 0 0 0 0 0 0 0 0 0 0 0.25 0"/>
<feBlend mode="normal" in2="BackgroundImageFix" result="effect1_dropShadow_40_2868"/>
<feBlend mode="normal" in="SourceGraphic" in2="effect1_dropShadow_40_2868" result="shape"/>
</filter>
<filter id="filter3_d_40_2868" x="55.5883" y="0" width="17.8823" height="17.0289" filterUnits="userSpaceOnUse" color-interpolation-filters="sRGB">
<feFlood flood-opacity="0" result="BackgroundImageFix"/>
<feColorMatrix in="SourceAlpha" type="matrix" values="0 0 0 0 0 0 0 0 0 0 0 0 0 0 0 0 0 0 127 0" result="hardAlpha"/>
<feOffset dy="1"/>
<feGaussianBlur stdDeviation="0.5"/>
<feComposite in2="hardAlpha" operator="out"/>
<feColorMatrix type="matrix" values="0 0 0 0 0 0 0 0 0 0 0 0 0 0 0 0 0 0 0.25 0"/>
<feBlend mode="normal" in2="BackgroundImageFix" result="effect1_dropShadow_40_2868"/>
<feBlend mode="normal" in="SourceGraphic" in2="effect1_dropShadow_40_2868" result="shape"/>
</filter>
<filter id="filter4_d_40_2868" x="74.4957" y="0" width="17.5042" height="17.0289" filterUnits="userSpaceOnUse" color-interpolation-filters="sRGB">
<feFlood flood-opacity="0" result="BackgroundImageFix"/>
<feColorMatrix in="SourceAlpha" type="matrix" values="0 0 0 0 0 0 0 0 0 0 0 0 0 0 0 0 0 0 127 0" result="hardAlpha"/>
<feOffset dy="1"/>
<feGaussianBlur stdDeviation="0.5"/>
<feComposite in2="hardAlpha" operator="out"/>
<feColorMatrix type="matrix" values="0 0 0 0 0 0 0 0 0 0 0 0 0 0 0 0 0 0 0.25 0"/>
<feBlend mode="normal" in2="BackgroundImageFix" result="effect1_dropShadow_40_2868"/>
<feBlend mode="normal" in="SourceGraphic" in2="effect1_dropShadow_40_2868" result="shape"/>
</filter>
</defs>
</svg>
