<svg width="14" height="8" viewBox="0 0 14 8" fill="none" xmlns="http://www.w3.org/2000/svg">
<path d="M1.1412 1.13452C1.23353 1.04891 1.35747 1.00098 1.48653 1.00098C1.6156 1.00098 1.73954 1.04891 1.83187 1.13452M1.1412 1.13452L12.8577 1.13354C12.7654 1.04793 12.6415 1 12.5124 1C12.3833 1 12.2594 1.04793 12.1671 1.13354V1.13452M1.1412 1.13452C1.0965 1.1761 1.06098 1.22573 1.03673 1.28051C1.01249 1.33528 1 1.3941 1 1.45351C1 1.51293 1.01249 1.57174 1.03673 1.62652C1.06098 1.68129 1.0965 1.73092 1.1412 1.7725V1.13452ZM1.83187 1.13452L6.99947 5.91646M1.83187 1.13452L1.93375 1.02442L1.9338 1.02447C1.81298 0.912475 1.65235 0.850981 1.48653 0.850981C1.32069 0.850981 1.16003 0.912496 1.03921 1.02453L1.03921 1.02453L1.03904 1.02469C0.979757 1.07983 0.9322 1.14608 0.899571 1.21979C0.866933 1.29353 0.85 1.37301 0.85 1.45351C0.85 1.53401 0.866933 1.6135 0.899571 1.68723C0.9322 1.76094 0.979757 1.8272 1.03904 1.88234L1.03931 1.88259L6.53674 6.97076L6.53675 6.97077C6.66178 7.08645 6.82793 7.15 6.99947 7.15C7.17101 7.15 7.33717 7.08645 7.46219 6.97077L7.46219 6.97077L12.9596 1.88364C13.0193 1.82846 13.0672 1.76205 13.1 1.6881L12.963 1.62716L13.1 1.6881C13.1329 1.61412 13.15 1.53433 13.15 1.45351C13.15 1.37269 13.1329 1.2929 13.1 1.21892L12.963 1.27986L13.1 1.21892C13.0672 1.14497 13.0193 1.07856 12.9596 1.02338C12.8388 0.911454 12.6782 0.85 12.5124 0.85C12.3466 0.85 12.1859 0.911514 12.0651 1.02355L12.0171 1.06806V1.06895M1.83187 1.13452L1.93386 1.02453L6.99947 5.71209M6.99947 5.91646L12.1671 1.13452M6.99947 5.91646L6.89759 5.80636L6.99947 5.71209M6.99947 5.91646L7.10135 5.80636L6.99947 5.71209M12.1671 1.13452H12.0171V1.13354V1.06895M12.1671 1.13452L12.1662 1.13354L12.0652 1.02442L12.0171 1.06895M6.99947 5.71209L12.0171 1.06895" fill="#32439D" stroke="#32439D" stroke-width="0.3"/>
</svg>
