<svg width="55" height="55" viewBox="0 0 55 55" fill="none" xmlns="http://www.w3.org/2000/svg">
<path d="M18.1741 32.9528L28.4534 22.9327L38.7327 32.9528C38.9164 33.1322 39.1629 33.2327 39.4196 33.2327C39.6764 33.2327 39.9229 33.1322 40.1066 32.9528C40.1955 32.8657 40.2662 32.7617 40.3144 32.6469C40.3626 32.5322 40.3875 32.4089 40.3875 32.2844C40.3875 32.1599 40.3626 32.0367 40.3144 31.9219C40.2662 31.8071 40.1955 31.7031 40.1066 31.616L29.1712 20.9541C28.9791 20.767 28.7216 20.6622 28.4534 20.6622C28.1852 20.6622 27.9277 20.767 27.7356 20.9541L16.8002 31.6139C16.7107 31.7011 16.6395 31.8054 16.5909 31.9205C16.5423 32.0357 16.5173 32.1594 16.5173 32.2844C16.5173 32.4094 16.5423 32.5331 16.5909 32.6483C16.6395 32.7634 16.7107 32.8677 16.8002 32.9549C16.9839 33.1343 17.2304 33.2347 17.4872 33.2347C17.7439 33.2347 17.9904 33.1343 18.1741 32.9549L18.1741 32.9528Z" fill="url(#paint0_linear_42_3670)"/>
<circle cx="27.5" cy="27.5" r="26.5" stroke="url(#paint1_linear_42_3670)" stroke-width="2"/>
<defs>
<linearGradient id="paint0_linear_42_3670" x1="40.3875" y1="32.2632" x2="12.932" y2="24.3258" gradientUnits="userSpaceOnUse">
<stop offset="0.0326603" stop-color="#88A3E8"/>
<stop offset="1" stop-color="#C8A1D6"/>
</linearGradient>
<linearGradient id="paint1_linear_42_3670" x1="-1.37322e-06" y1="4.25001" x2="66.9948" y2="14.4514" gradientUnits="userSpaceOnUse">
<stop offset="0.0326603" stop-color="#88A3E8"/>
<stop offset="1" stop-color="#C8A1D6"/>
</linearGradient>
</defs>
</svg>
