<svg width="13" height="9" viewBox="0 0 13 9" fill="none" xmlns="http://www.w3.org/2000/svg">
<path d="M8.46422 4.69184C8.46422 5.17564 8.25831 5.63962 7.89177 5.98172C7.52524 6.32382 7.02812 6.51601 6.50976 6.51601C5.9914 6.51601 5.49428 6.32382 5.12775 5.98172C4.76121 5.63962 4.5553 5.17564 4.5553 4.69184C4.5553 4.20804 4.76121 3.74406 5.12775 3.40196C5.49428 3.05986 5.9914 2.86768 6.50976 2.86768C7.02812 2.86768 7.52524 3.05986 7.89177 3.40196C8.25831 3.74406 8.46422 4.20804 8.46422 4.69184Z" fill="white"/>
<path d="M0.255493 4.69187C0.255493 4.69187 2.60085 0.678711 6.50977 0.678711C10.4187 0.678711 12.7641 4.69187 12.7641 4.69187C12.7641 4.69187 10.4187 8.70504 6.50977 8.70504C2.60085 8.70504 0.255493 4.69187 0.255493 4.69187ZM6.50977 7.2457C7.23547 7.2457 7.93144 6.97664 8.44459 6.4977C8.95774 6.01877 9.24602 5.36919 9.24602 4.69187C9.24602 4.01456 8.95774 3.36498 8.44459 2.88604C7.93144 2.40711 7.23547 2.13804 6.50977 2.13804C5.78407 2.13804 5.0881 2.40711 4.57495 2.88604C4.06181 3.36498 3.77352 4.01456 3.77352 4.69187C3.77352 5.36919 4.06181 6.01877 4.57495 6.4977C5.0881 6.97664 5.78407 7.2457 6.50977 7.2457Z" fill="white"/>
</svg>
