<svg width="37" height="38" viewBox="0 0 37 38" fill="none" xmlns="http://www.w3.org/2000/svg">
<path d="M22.8742 14.2666H23.3742V13.7666L23.3742 10.721V10.221H22.8742H20.0944C17.4656 10.221 15.6183 12.4635 15.6183 15.0997V16.2834H13.142H12.642V16.7834L12.642 19.646V20.146H13.142H15.6183V28.2397L15.6183 28.7397H16.1183H19.399H19.899V28.2397V20.146H22.3502H22.7667L22.842 19.7363L23.3679 16.8737L23.4763 16.2834H22.8761H19.899V14.776C19.899 14.5922 19.9578 14.4442 20.0259 14.3516C20.0704 14.2911 20.103 14.2719 20.1135 14.2666H22.8742ZM0.500122 19.4803C0.500122 9.54269 8.55593 1.48688 18.4936 1.48688C28.4312 1.48688 36.487 9.54269 36.487 19.4803C36.487 29.4179 28.4312 37.4738 18.4936 37.4738C8.55593 37.4738 0.500122 29.4179 0.500122 19.4803Z" stroke="white"/>
</svg>
