<svg xmlns="http://www.w3.org/2000/svg">
<path d="M27.0272 11.0745L16.6347 21.205L6.24217 11.0745C6.05649 10.8932 5.80723 10.7916 5.54768 10.7916C5.28812 10.7916 5.03886 10.8932 4.85318 11.0745C4.76327 11.1626 4.69185 11.2678 4.64309 11.3838C4.59433 11.4998 4.56921 11.6244 4.56921 11.7503C4.56921 11.8762 4.59433 12.0008 4.64309 12.1168C4.69185 12.2329 4.76327 12.338 4.85318 12.4261L15.909 23.2053C16.1031 23.3946 16.3635 23.5005 16.6347 23.5005C16.9058 23.5005 17.1662 23.3946 17.3603 23.2053L28.4161 12.4282C28.5067 12.34 28.5786 12.2346 28.6278 12.1182C28.6769 12.0018 28.7022 11.8767 28.7022 11.7503C28.7022 11.6239 28.6769 11.4989 28.6278 11.3824C28.5786 11.266 28.5067 11.1606 28.4161 11.0724C28.2305 10.8911 27.9812 10.7896 27.7216 10.7896C27.4621 10.7896 27.2128 10.8911 27.0272 11.0724V11.0745Z" fill="url(#paint0_linear_27_1155)"/>
<path d="M24.0579 25.3371L16.6347 32.5732L9.21145 25.3371C9.07882 25.2076 8.90078 25.135 8.71538 25.135C8.52998 25.135 8.35194 25.2076 8.21931 25.3371C8.15509 25.4 8.10408 25.4751 8.06925 25.558C8.03442 25.6409 8.01648 25.7299 8.01648 25.8198C8.01648 25.9097 8.03442 25.9987 8.06925 26.0816C8.10408 26.1645 8.15509 26.2396 8.21931 26.3025L16.1163 34.002C16.255 34.1371 16.441 34.2128 16.6347 34.2128C16.8283 34.2128 17.0143 34.1371 17.153 34.002L25.05 26.304C25.1147 26.241 25.1661 26.1657 25.2012 26.0826C25.2363 25.9994 25.2544 25.9101 25.2544 25.8198C25.2544 25.7295 25.2363 25.6402 25.2012 25.557C25.1661 25.4739 25.1147 25.3986 25.05 25.3356C24.9174 25.2061 24.7393 25.1335 24.5539 25.1335C24.3685 25.1335 24.1905 25.2061 24.0579 25.3356V25.3371Z" fill="white" fill-opacity="0.6"/>
<defs>
<linearGradient id="paint0_linear_27_1155" x1="4.56921" y1="11.7718" x2="32.3269" y2="19.7966" gradientUnits="userSpaceOnUse">
<stop offset="0.0326603" stop-color="#88A3E8"/>
<stop offset="1" stop-color="#C8A1D6"/>
</linearGradient>
</defs>
</svg>
