<svg width="228" height="56" viewBox="0 0 228 56" fill="none" xmlns="http://www.w3.org/2000/svg">
<path d="M55.426 37.338C52.6873 37.338 50.4167 36.4367 48.614 34.634C46.8113 32.814 45.91 30.5693 45.91 27.9C45.91 25.2307 46.8113 22.9947 48.614 21.192C50.4167 19.372 52.6873 18.462 55.426 18.462C57.0727 18.462 58.5893 18.852 59.976 19.632C61.38 20.412 62.472 21.4693 63.252 22.804L60.652 24.312C60.1667 23.4107 59.456 22.7 58.52 22.18C57.6013 21.6427 56.57 21.374 55.426 21.374C53.4847 21.374 51.9073 21.9893 50.694 23.22C49.498 24.4507 48.9 26.0107 48.9 27.9C48.9 29.7893 49.498 31.3493 50.694 32.58C51.9073 33.8107 53.4847 34.426 55.426 34.426C56.57 34.426 57.61 34.166 58.546 33.646C59.482 33.1087 60.184 32.3893 60.652 31.488L63.252 32.97C62.4893 34.3047 61.406 35.3707 60.002 36.168C58.6153 36.948 57.09 37.338 55.426 37.338ZM68.489 26.184C69.1996 24.572 70.5343 23.766 72.493 23.766V26.808C71.4183 26.7387 70.4823 26.9987 69.685 27.588C68.8876 28.16 68.489 29.1133 68.489 30.448V37H65.681V24H68.489V26.184ZM83.5836 24H86.5736L81.5816 37.416C80.3336 40.7787 78.2189 42.3733 75.2376 42.2V39.574C76.1216 39.626 76.8323 39.4353 77.3696 39.002C77.9069 38.586 78.3489 37.9273 78.6956 37.026L78.8256 36.766L73.3136 24H76.3816L80.2556 33.438L83.5836 24ZM95.6874 23.662C97.4727 23.662 98.9981 24.3293 100.263 25.664C101.529 26.9813 102.161 28.5933 102.161 30.5C102.161 32.424 101.529 34.0447 100.263 35.362C98.9981 36.6793 97.4727 37.338 95.6874 37.338C93.7114 37.338 92.1947 36.61 91.1374 35.154V42.2H88.3294V24H91.1374V25.872C92.1947 24.3987 93.7114 23.662 95.6874 23.662ZM92.3074 33.49C93.0874 34.27 94.0667 34.66 95.2454 34.66C96.4241 34.66 97.4034 34.27 98.1834 33.49C98.9634 32.6927 99.3534 31.696 99.3534 30.5C99.3534 29.304 98.9634 28.316 98.1834 27.536C97.4034 26.7387 96.4241 26.34 95.2454 26.34C94.0667 26.34 93.0874 26.7387 92.3074 27.536C91.5274 28.316 91.1374 29.304 91.1374 30.5C91.1374 31.696 91.5274 32.6927 92.3074 33.49ZM111.706 26.704H108.482V32.944C108.482 33.4813 108.604 33.8713 108.846 34.114C109.089 34.3393 109.444 34.4693 109.912 34.504C110.398 34.5213 110.996 34.5127 111.706 34.478V37C109.557 37.26 108.014 37.078 107.078 36.454C106.142 35.8127 105.674 34.6427 105.674 32.944V26.704H103.282V24H105.674V21.192L108.482 20.36V24H111.706V26.704ZM119.856 37.338C117.949 37.338 116.329 36.6793 114.994 35.362C113.659 34.0447 112.992 32.424 112.992 30.5C112.992 28.576 113.659 26.9553 114.994 25.638C116.329 24.3207 117.949 23.662 119.856 23.662C121.78 23.662 123.401 24.3207 124.718 25.638C126.053 26.9553 126.72 28.576 126.72 30.5C126.72 32.424 126.053 34.0447 124.718 35.362C123.401 36.6793 121.78 37.338 119.856 37.338ZM116.97 33.438C117.75 34.218 118.712 34.608 119.856 34.608C121 34.608 121.962 34.218 122.742 33.438C123.522 32.658 123.912 31.6787 123.912 30.5C123.912 29.3213 123.522 28.342 122.742 27.562C121.962 26.782 121 26.392 119.856 26.392C118.712 26.392 117.75 26.782 116.97 27.562C116.19 28.342 115.8 29.3213 115.8 30.5C115.8 31.6787 116.19 32.658 116.97 33.438Z" fill="#32439D"/>
<path d="M136.149 18.8C137.865 18.8 139.295 19.372 140.439 20.516C141.6 21.66 142.181 23.0813 142.181 24.78C142.181 26.4613 141.6 27.8827 140.439 29.044C139.295 30.188 137.865 30.76 136.149 30.76H132.431V37H129.441V18.8H136.149ZM136.149 27.952C137.033 27.952 137.761 27.6573 138.333 27.068C138.905 26.4613 139.191 25.6987 139.191 24.78C139.191 23.8613 138.905 23.1073 138.333 22.518C137.761 21.9113 137.033 21.608 136.149 21.608H132.431V27.952H136.149ZM149.817 37.338C147.91 37.338 146.29 36.6793 144.955 35.362C143.62 34.0447 142.953 32.424 142.953 30.5C142.953 28.576 143.62 26.9553 144.955 25.638C146.29 24.3207 147.91 23.662 149.817 23.662C151.741 23.662 153.362 24.3207 154.679 25.638C156.014 26.9553 156.681 28.576 156.681 30.5C156.681 32.424 156.014 34.0447 154.679 35.362C153.362 36.6793 151.741 37.338 149.817 37.338ZM146.931 33.438C147.711 34.218 148.673 34.608 149.817 34.608C150.961 34.608 151.923 34.218 152.703 33.438C153.483 32.658 153.873 31.6787 153.873 30.5C153.873 29.3213 153.483 28.342 152.703 27.562C151.923 26.782 150.961 26.392 149.817 26.392C148.673 26.392 147.711 26.782 146.931 27.562C146.151 28.342 145.761 29.3213 145.761 30.5C145.761 31.6787 146.151 32.658 146.931 33.438ZM162.028 26.184C162.739 24.572 164.073 23.766 166.032 23.766V26.808C164.957 26.7387 164.021 26.9987 163.224 27.588C162.427 28.16 162.028 29.1133 162.028 30.448V37H159.22V24H162.028V26.184ZM175.691 26.704H172.467V32.944C172.467 33.4813 172.588 33.8713 172.831 34.114C173.073 34.3393 173.429 34.4693 173.897 34.504C174.382 34.5213 174.98 34.5127 175.691 34.478V37C173.541 37.26 171.999 37.078 171.063 36.454C170.127 35.8127 169.659 34.6427 169.659 32.944V26.704H167.267V24H169.659V21.192L172.467 20.36V24H175.691V26.704ZM188 24H190.808V37H188V35.128C186.943 36.6013 185.426 37.338 183.45 37.338C181.665 37.338 180.14 36.6793 178.874 35.362C177.609 34.0273 176.976 32.4067 176.976 30.5C176.976 28.576 177.609 26.9553 178.874 25.638C180.14 24.3207 181.665 23.662 183.45 23.662C185.426 23.662 186.943 24.39 188 25.846V24ZM180.954 33.49C181.734 34.27 182.714 34.66 183.892 34.66C185.071 34.66 186.05 34.27 186.83 33.49C187.61 32.6927 188 31.696 188 30.5C188 29.304 187.61 28.316 186.83 27.536C186.05 26.7387 185.071 26.34 183.892 26.34C182.714 26.34 181.734 26.7387 180.954 27.536C180.174 28.316 179.784 29.304 179.784 30.5C179.784 31.696 180.174 32.6927 180.954 33.49ZM194.081 37V18.02H196.889V37H194.081Z" fill="#1271D9"/>
<path d="M32 38L16.5 12L1 38" stroke="#32439D" stroke-width="2" stroke-linecap="round"/>
<path d="M32 38L16.5 12L1 38" stroke="url(#paint0_linear_143_30)" stroke-opacity="0.7" stroke-width="2" stroke-linecap="round"/>
<path d="M25 38L16.5 25L8 38" stroke="#32439D" stroke-width="2" stroke-linecap="round"/>
<path d="M25 38L16.5 25L8 38" stroke="url(#paint1_linear_143_30)" stroke-opacity="0.7" stroke-width="2" stroke-linecap="round"/>
<defs>
<linearGradient id="paint0_linear_143_30" x1="12.8579" y1="25" x2="27.1721" y2="25" gradientUnits="userSpaceOnUse">
<stop offset="0.0326603" stop-color="#1271D9" stop-opacity="0"/>
<stop offset="1" stop-color="#074DFF"/>
</linearGradient>
<linearGradient id="paint1_linear_143_30" x1="14.5027" y1="31.5" x2="22.3525" y2="31.5" gradientUnits="userSpaceOnUse">
<stop offset="0.0326603" stop-color="#1271D9" stop-opacity="0"/>
<stop offset="1" stop-color="#074DFF"/>
</linearGradient>
</defs>
</svg>
