<svg xmlns="http://www.w3.org/2000/svg">
<path d="M38.8078 26.2323C36.9257 26.2323 35.3653 25.6129 34.1265 24.374C32.8876 23.1233 32.2682 21.5807 32.2682 19.7463C32.2682 17.9118 32.8876 16.3752 34.1265 15.1364C35.3653 13.8856 36.9257 13.2602 38.8078 13.2602C39.9395 13.2602 40.9817 13.5282 41.9347 14.0643C42.8996 14.6003 43.65 15.3269 44.186 16.2442L42.3993 17.2805C42.0657 16.6611 41.5773 16.1727 40.9341 15.8153C40.3028 15.4461 39.594 15.2614 38.8078 15.2614C37.4737 15.2614 36.3897 15.6843 35.5559 16.53C34.734 17.3758 34.323 18.4479 34.323 19.7463C34.323 21.0447 34.734 22.1167 35.5559 22.9625C36.3897 23.8082 37.4737 24.2311 38.8078 24.2311C39.594 24.2311 40.3087 24.0524 40.952 23.695C41.5952 23.3258 42.0776 22.8314 42.3993 22.212L44.186 23.2305C43.6619 24.1477 42.9174 24.8803 41.9526 25.4282C40.9996 25.9643 39.9514 26.2323 38.8078 26.2323ZM47.785 18.567C48.2734 17.4592 49.1906 16.9053 50.5367 16.9053V18.9958C49.7981 18.9482 49.1549 19.1268 48.6069 19.5318C48.059 19.9249 47.785 20.5801 47.785 21.4973V26H45.8553V17.0661H47.785V18.567ZM58.1584 17.0661H60.2132L56.7826 26.2859C55.9249 28.5968 54.4717 29.6927 52.4228 29.5736V27.7689C53.0304 27.8047 53.5187 27.6736 53.888 27.3758C54.2573 27.0899 54.561 26.6373 54.7993 26.0179L54.8886 25.8392L51.1006 17.0661H53.209L55.8713 23.5521L58.1584 17.0661ZM66.4765 16.8338C67.7034 16.8338 68.7516 17.2924 69.6212 18.2096C70.4908 19.1149 70.9256 20.2227 70.9256 21.533C70.9256 22.8553 70.4908 23.969 69.6212 24.8743C68.7516 25.7796 67.7034 26.2323 66.4765 26.2323C65.1185 26.2323 64.0762 25.732 63.3496 24.7314V29.5736H61.4199V17.0661H63.3496V18.3526C64.0762 17.3401 65.1185 16.8338 66.4765 16.8338ZM64.1536 23.5878C64.6897 24.1239 65.3627 24.3919 66.1727 24.3919C66.9827 24.3919 67.6557 24.1239 68.1918 23.5878C68.7278 23.0399 68.9958 22.355 68.9958 21.533C68.9958 20.7111 68.7278 20.0321 68.1918 19.4961C67.6557 18.9482 66.9827 18.6742 66.1727 18.6742C65.3627 18.6742 64.6897 18.9482 64.1536 19.4961C63.6176 20.0321 63.3496 20.7111 63.3496 21.533C63.3496 22.355 63.6176 23.0399 64.1536 23.5878ZM77.4851 18.9243H75.2695V23.2126C75.2695 23.5819 75.3529 23.8499 75.5197 24.0167C75.6864 24.1715 75.9306 24.2609 76.2523 24.2847C76.5858 24.2966 76.9968 24.2906 77.4851 24.2668V26C76.0081 26.1787 74.9479 26.0536 74.3047 25.6248C73.6614 25.184 73.3398 24.38 73.3398 23.2126V18.9243H71.696V17.0661H73.3398V15.1364L75.2695 14.5646V17.0661H77.4851V18.9243ZM83.0857 26.2323C81.7754 26.2323 80.6617 25.7796 79.7444 24.8743C78.8272 23.969 78.3686 22.8553 78.3686 21.533C78.3686 20.2108 78.8272 19.0971 79.7444 18.1918C80.6617 17.2864 81.7754 16.8338 83.0857 16.8338C84.408 16.8338 85.5217 17.2864 86.427 18.1918C87.3442 19.0971 87.8028 20.2108 87.8028 21.533C87.8028 22.8553 87.3442 23.969 86.427 24.8743C85.5217 25.7796 84.408 26.2323 83.0857 26.2323ZM81.1024 23.5521C81.6384 24.0881 82.2995 24.3562 83.0857 24.3562C83.8719 24.3562 84.533 24.0881 85.0691 23.5521C85.6051 23.0161 85.8731 22.343 85.8731 21.533C85.8731 20.723 85.6051 20.05 85.0691 19.514C84.533 18.9779 83.8719 18.7099 83.0857 18.7099C82.2995 18.7099 81.6384 18.9779 81.1024 19.514C80.5664 20.05 80.2983 20.723 80.2983 21.533C80.2983 22.343 80.5664 23.0161 81.1024 23.5521Z" fill="#32439D"/>
<path d="M94.2827 13.4925C95.462 13.4925 96.4447 13.8856 97.2309 14.6718C98.029 15.458 98.4281 16.4347 98.4281 17.6021C98.4281 18.7576 98.029 19.7343 97.2309 20.5324C96.4447 21.3186 95.462 21.7117 94.2827 21.7117H91.7276V26H89.6728V13.4925H94.2827ZM94.2827 19.782C94.8902 19.782 95.3905 19.5795 95.7836 19.1745C96.1767 18.7576 96.3733 18.2334 96.3733 17.6021C96.3733 16.9708 96.1767 16.4526 95.7836 16.0476C95.3905 15.6307 94.8902 15.4222 94.2827 15.4222H91.7276V19.782H94.2827ZM103.676 26.2323C102.365 26.2323 101.252 25.7796 100.334 24.8743C99.4171 23.969 98.9585 22.8553 98.9585 21.533C98.9585 20.2108 99.4171 19.0971 100.334 18.1918C101.252 17.2864 102.365 16.8338 103.676 16.8338C104.998 16.8338 106.112 17.2864 107.017 18.1918C107.934 19.0971 108.393 20.2108 108.393 21.533C108.393 22.8553 107.934 23.969 107.017 24.8743C106.112 25.7796 104.998 26.2323 103.676 26.2323ZM101.692 23.5521C102.228 24.0881 102.889 24.3562 103.676 24.3562C104.462 24.3562 105.123 24.0881 105.659 23.5521C106.195 23.0161 106.463 22.343 106.463 21.533C106.463 20.723 106.195 20.05 105.659 19.514C105.123 18.9779 104.462 18.7099 103.676 18.7099C102.889 18.7099 102.228 18.9779 101.692 19.514C101.156 20.05 100.888 20.723 100.888 21.533C100.888 22.343 101.156 23.0161 101.692 23.5521ZM112.067 18.567C112.556 17.4592 113.473 16.9053 114.819 16.9053V18.9958C114.08 18.9482 113.437 19.1268 112.889 19.5318C112.341 19.9249 112.067 20.5801 112.067 21.4973V26H110.138V17.0661H112.067V18.567ZM121.457 18.9243H119.241V23.2126C119.241 23.5819 119.325 23.8499 119.491 24.0167C119.658 24.1715 119.902 24.2609 120.224 24.2847C120.557 24.2966 120.968 24.2906 121.457 24.2668V26C119.98 26.1787 118.92 26.0536 118.276 25.6248C117.633 25.184 117.311 24.38 117.311 23.2126V18.9243H115.668V17.0661H117.311V15.1364L119.241 14.5646V17.0661H121.457V18.9243ZM129.916 17.0661H131.846V26H129.916V24.7135C129.19 25.726 128.147 26.2323 126.789 26.2323C125.562 26.2323 124.514 25.7796 123.645 24.8743C122.775 23.9571 122.34 22.8433 122.34 21.533C122.34 20.2108 122.775 19.0971 123.645 18.1918C124.514 17.2864 125.562 16.8338 126.789 16.8338C128.147 16.8338 129.19 17.3341 129.916 18.3347V17.0661ZM125.074 23.5878C125.61 24.1239 126.283 24.3919 127.093 24.3919C127.903 24.3919 128.576 24.1239 129.112 23.5878C129.648 23.0399 129.916 22.355 129.916 21.533C129.916 20.7111 129.648 20.0321 129.112 19.4961C128.576 18.9482 127.903 18.6742 127.093 18.6742C126.283 18.6742 125.61 18.9482 125.074 19.4961C124.538 20.0321 124.27 20.7111 124.27 21.533C124.27 22.355 124.538 23.0399 125.074 23.5878ZM134.095 26V12.9565H136.025V26H134.095Z" fill="#1271D9"/>
<path d="M22.5893 26.4646L11.7946 8.35742L1 26.4646" stroke="#32439D" stroke-width="1.37445" stroke-linecap="round"/>
<path d="M22.5893 26.4646L11.7946 8.35742L1 26.4646" stroke="url(#paint0_linear_27_2286)" stroke-opacity="0.7" stroke-width="1.37445" stroke-linecap="round"/>
<path d="M17.7148 26.4642L11.7951 17.4106L5.87549 26.4642" stroke="#32439D" stroke-width="1.37445" stroke-linecap="round"/>
<path d="M17.7148 26.4642L11.7951 17.4106L5.87549 26.4642" stroke="url(#paint1_linear_27_2286)" stroke-opacity="0.7" stroke-width="1.37445" stroke-linecap="round"/>
<defs>
<linearGradient id="paint0_linear_27_2286" x1="9.2582" y1="17.411" x2="19.227" y2="17.411" gradientUnits="userSpaceOnUse">
<stop offset="0.0326603" stop-color="#1271D9" stop-opacity="0"/>
<stop offset="1" stop-color="#074DFF"/>
</linearGradient>
<linearGradient id="paint1_linear_27_2286" x1="10.4042" y1="21.9374" x2="15.871" y2="21.9374" gradientUnits="userSpaceOnUse">
<stop offset="0.0326603" stop-color="#1271D9" stop-opacity="0"/>
<stop offset="1" stop-color="#074DFF"/>
</linearGradient>
</defs>
</svg>
