<svg width="37" height="37" viewBox="0 0 37 37" fill="none" xmlns="http://www.w3.org/2000/svg">
<path d="M28.0658 12.7736L28.1222 12.508L28.1113 12.4971C28.1857 11.8945 28.0621 11.36 27.6943 11.0016C27.2654 10.5836 26.6562 10.5519 26.1234 10.7438L26.1234 10.7437L26.113 10.7477L8.28293 17.6236L8.28106 17.6244C7.94238 17.7565 7.65738 17.9146 7.4448 18.1014C7.23488 18.2859 7.05662 18.5347 7.02989 18.8431C7.00178 19.1674 7.1507 19.438 7.354 19.629C7.55021 19.8134 7.81408 19.9445 8.10369 20.0358L8.10505 20.0362L12.6688 21.4608L12.8889 21.5295L13.0841 21.4066L21.3665 16.1927L15.0788 21.8736L14.9292 22.0088L14.9152 22.2098L14.5871 26.9155L14.5498 27.4503H15.0859C15.4056 27.4503 15.665 27.3782 15.89 27.2474C16.0897 27.1313 16.2434 26.9773 16.357 26.8636L16.368 26.8525L18.2906 25.0009L22.5744 28.1582L22.5985 28.1759L22.6245 28.1907C23.1044 28.4625 23.6468 28.604 24.144 28.3792C24.6394 28.1551 24.9035 27.6511 25.0296 27.081L25.0305 27.0768L28.0658 12.7736ZM0.5 18.4934C0.5 8.55402 8.55287 0.5 18.4934 0.5C28.4328 0.5 36.4869 8.55404 36.4869 18.4934C36.4869 28.4329 28.434 36.4869 18.4934 36.4869C8.55404 36.4869 0.5 28.4328 0.5 18.4934Z" stroke="white"/>
</svg>
