<svg width="37" height="38" viewBox="0 0 37 38" fill="none" xmlns="http://www.w3.org/2000/svg">
<path d="M18.2358 16.4535C17.0717 16.321 15.9389 15.9819 14.8912 15.4503C13.6604 14.826 12.5745 13.9501 11.7037 12.8794L11.248 12.3191L10.884 12.9428C10.3517 13.8548 10.1879 14.9357 10.4262 15.9644C10.5165 16.3544 10.662 16.7257 10.8557 17.0684L10.2918 16.7565L10.2918 17.6044V17.6487V17.6488C10.292 18.6053 10.6231 19.5322 11.2288 20.2725C11.3503 20.421 11.4813 20.5601 11.6208 20.6892L11.3359 20.6351L11.5952 21.4375C11.8607 22.2594 12.3761 22.978 13.0694 23.4931C13.4034 23.7412 13.7706 23.9362 14.1581 24.0735C13.2019 24.5825 12.1103 24.8697 10.9498 24.8697C10.6698 24.8697 10.3999 24.8568 10.1417 24.8252L9.8102 25.7419C11.5553 26.866 13.5879 27.4623 15.6637 27.459L18.2358 16.4535ZM18.2358 16.4535C18.1888 15.7744 18.3098 15.0906 18.5926 14.4638C18.9683 13.6315 19.6083 12.9467 20.4133 12.5157C21.2184 12.0847 22.1432 11.9317 23.0441 12.0806C23.8493 12.2136 24.595 12.5811 25.1895 13.1338C25.8564 12.975 26.496 12.7162 27.0865 12.366L28.222 11.6925L27.8175 12.9493C27.711 13.2801 27.5643 13.5938 27.3823 13.884C27.4655 13.851 27.5481 13.8163 27.63 13.78L29.205 13.0814L28.2486 14.5146C27.777 15.2214 27.1945 15.8468 26.5241 16.3671C26.5254 16.444 26.5258 16.5195 26.5258 16.593C26.5258 21.6236 22.6977 27.4585 15.6645 27.459L18.2358 16.4535ZM0.500122 19.4672C0.500122 9.52956 8.55593 1.47375 18.4936 1.47375C28.4312 1.47375 36.487 9.52956 36.487 19.4672C36.487 29.4048 28.4312 37.4606 18.4936 37.4606C8.55593 37.4606 0.500122 29.4048 0.500122 19.4672Z" stroke="white"/>
</svg>
