<svg xmlns="http://www.w3.org/2000/svg" xmlns:xlink="http://www.w3.org/1999/xlink"><defs><linearGradient id="a" x1="4.569" y1="11.772" x2="32.327" y2="19.797" gradientUnits="userSpaceOnUse"><stop offset=".033" stop-color="#88A3E8"/><stop offset="1" stop-color="#C8A1D6"/></linearGradient><linearGradient id="a" x1="12.858" y1="25" x2="27.172" y2="25" gradientUnits="userSpaceOnUse"><stop offset=".033" stop-color="#1271D9" stop-opacity="0"/><stop offset="1" stop-color="#074DFF"/></linearGradient><linearGradient id="b" x1="14.503" y1="31.5" x2="22.352" y2="31.5" gradientUnits="userSpaceOnUse"><stop offset=".033" stop-color="#1271D9" stop-opacity="0"/><stop offset="1" stop-color="#074DFF"/></linearGradient><filter id="a" x=".546" y="0" width="38.454" height="36" filterUnits="userSpaceOnUse" color-interpolation-filters="sRGB"><feFlood flood-opacity="0" result="BackgroundImageFix"/><feColorMatrix in="SourceAlpha" values="0 0 0 0 0 0 0 0 0 0 0 0 0 0 0 0 0 0 127 0" result="hardAlpha"/><feOffset dy="2"/><feGaussianBlur stdDeviation="1"/><feComposite in2="hardAlpha" operator="out"/><feColorMatrix values="0 0 0 0 0 0 0 0 0 0 0 0 0 0 0 0 0 0 0.25 0"/><feBlend in2="BackgroundImageFix" result="effect1_dropShadow_9_241"/><feBlend in="SourceGraphic" in2="effect1_dropShadow_9_241" result="shape"/></filter><linearGradient id="a" x1="40.388" y1="32.263" x2="12.932" y2="24.326" gradientUnits="userSpaceOnUse"><stop offset=".033" stop-color="#88A3E8"/><stop offset="1" stop-color="#C8A1D6"/></linearGradient><linearGradient id="b" x1="0" y1="4.25" x2="66.995" y2="14.451" gradientUnits="userSpaceOnUse"><stop offset=".033" stop-color="#88A3E8"/><stop offset="1" stop-color="#C8A1D6"/></linearGradient><linearGradient id="a" x1="9.258" y1="17.411" x2="19.227" y2="17.411" gradientUnits="userSpaceOnUse"><stop offset=".033" stop-color="#1271D9" stop-opacity="0"/><stop offset="1" stop-color="#074DFF"/></linearGradient><linearGradient id="b" x1="10.404" y1="21.937" x2="15.871" y2="21.937" gradientUnits="userSpaceOnUse"><stop offset=".033" stop-color="#1271D9" stop-opacity="0"/><stop offset="1" stop-color="#074DFF"/></linearGradient></defs><symbol id="Group9"><path d="m27.027 11.075-10.392 10.13-10.393-10.13a.994.994 0 0 0-1.389 0 .947.947 0 0 0 0 1.351l11.056 10.78a1.04 1.04 0 0 0 1.451 0l11.056-10.778a.947.947 0 0 0 0-1.356.994.994 0 0 0-1.389 0v.003Z" fill="url(#a)"/><path d="m24.058 25.337-7.423 7.236-7.424-7.236a.71.71 0 0 0-.992 0 .675.675 0 0 0 0 .965l7.897 7.7a.743.743 0 0 0 1.037 0l7.897-7.698a.676.676 0 0 0 0-.968.71.71 0 0 0-.992 0v.001Z" fill="#fff" fill-opacity=".6"/></symbol><symbol id="GroupLogo"><g fill="none"><path d="M55.426 37.338c-2.739 0-5.01-.901-6.812-2.704-1.803-1.82-2.704-4.065-2.704-6.734 0-2.67.901-4.905 2.704-6.708 1.803-1.82 4.073-2.73 6.812-2.73 1.647 0 3.163.39 4.55 1.17 1.404.78 2.496 1.837 3.276 3.172l-2.6 1.508c-.485-.901-1.196-1.612-2.132-2.132-.919-.537-1.95-.806-3.094-.806-1.941 0-3.519.615-4.732 1.846-1.196 1.23-1.794 2.79-1.794 4.68 0 1.89.598 3.45 1.794 4.68 1.213 1.23 2.79 1.846 4.732 1.846 1.144 0 2.184-.26 3.12-.78.936-.537 1.638-1.257 2.106-2.158l2.6 1.482c-.763 1.335-1.846 2.4-3.25 3.198-1.387.78-2.912 1.17-4.576 1.17Zm13.063-11.154c.71-1.612 2.045-2.418 4.004-2.418v3.042c-1.075-.07-2.01.19-2.808.78-.797.572-1.196 1.525-1.196 2.86V37h-2.808V24h2.808v2.184ZM83.584 24h2.99l-4.992 13.416c-1.248 3.363-3.363 4.957-6.344 4.784v-2.626c.884.052 1.594-.139 2.132-.572.537-.416.979-1.075 1.326-1.976l.13-.26L73.314 24h3.068l3.874 9.438L83.584 24Zm12.103-.338c1.786 0 3.311.667 4.576 2.002 1.266 1.317 1.898 2.93 1.898 4.836 0 1.924-.632 3.545-1.898 4.862-1.265 1.317-2.79 1.976-4.576 1.976-1.976 0-3.492-.728-4.55-2.184V42.2H88.33V24h2.808v1.872c1.058-1.473 2.574-2.21 4.55-2.21Zm-3.38 9.828c.78.78 1.76 1.17 2.938 1.17 1.18 0 2.158-.39 2.938-1.17.78-.797 1.17-1.794 1.17-2.99 0-1.196-.39-2.184-1.17-2.964-.78-.797-1.759-1.196-2.938-1.196-1.178 0-2.158.399-2.938 1.196-.78.78-1.17 1.768-1.17 2.964s.39 2.193 1.17 2.99Zm19.399-6.786h-3.224v6.24c0 .537.122.927.364 1.17.243.225.598.355 1.066.39.486.017 1.084.009 1.794-.026V37c-2.149.26-3.692.078-4.628-.546-.936-.641-1.404-1.811-1.404-3.51v-6.24h-2.392V24h2.392v-2.808l2.808-.832V24h3.224v2.704Zm8.15 10.634c-1.907 0-3.527-.659-4.862-1.976s-2.002-2.938-2.002-4.862.667-3.545 2.002-4.862c1.335-1.317 2.955-1.976 4.862-1.976 1.924 0 3.545.659 4.862 1.976 1.335 1.317 2.002 2.938 2.002 4.862s-.667 3.545-2.002 4.862c-1.317 1.317-2.938 1.976-4.862 1.976Zm-2.886-3.9c.78.78 1.742 1.17 2.886 1.17 1.144 0 2.106-.39 2.886-1.17.78-.78 1.17-1.76 1.17-2.938 0-1.179-.39-2.158-1.17-2.938-.78-.78-1.742-1.17-2.886-1.17-1.144 0-2.106.39-2.886 1.17-.78.78-1.17 1.76-1.17 2.938 0 1.179.39 2.158 1.17 2.938Z" fill="#32439D"/><path d="M136.149 18.8c1.716 0 3.146.572 4.29 1.716 1.161 1.144 1.742 2.565 1.742 4.264 0 1.681-.581 3.103-1.742 4.264-1.144 1.144-2.574 1.716-4.29 1.716h-3.718V37h-2.99V18.8h6.708Zm0 9.152c.884 0 1.612-.295 2.184-.884.572-.607.858-1.37.858-2.288 0-.919-.286-1.673-.858-2.262-.572-.607-1.3-.91-2.184-.91h-3.718v6.344h3.718Zm13.668 9.386c-1.907 0-3.527-.659-4.862-1.976s-2.002-2.938-2.002-4.862.667-3.545 2.002-4.862c1.335-1.317 2.955-1.976 4.862-1.976 1.924 0 3.545.659 4.862 1.976 1.335 1.317 2.002 2.938 2.002 4.862s-.667 3.545-2.002 4.862c-1.317 1.317-2.938 1.976-4.862 1.976Zm-2.886-3.9c.78.78 1.742 1.17 2.886 1.17 1.144 0 2.106-.39 2.886-1.17.78-.78 1.17-1.76 1.17-2.938 0-1.179-.39-2.158-1.17-2.938-.78-.78-1.742-1.17-2.886-1.17-1.144 0-2.106.39-2.886 1.17-.78.78-1.17 1.76-1.17 2.938 0 1.179.39 2.158 1.17 2.938Zm15.097-7.254c.711-1.612 2.045-2.418 4.004-2.418v3.042c-1.075-.07-2.011.19-2.808.78-.797.572-1.196 1.525-1.196 2.86V37h-2.808V24h2.808v2.184Zm13.663.52h-3.224v6.24c0 .537.121.927.364 1.17.242.225.598.355 1.066.39.485.017 1.083.009 1.794-.026V37c-2.15.26-3.692.078-4.628-.546-.936-.641-1.404-1.811-1.404-3.51v-6.24h-2.392V24h2.392v-2.808l2.808-.832V24h3.224v2.704ZM188 24h2.808v13H188v-1.872c-1.057 1.473-2.574 2.21-4.55 2.21-1.785 0-3.31-.659-4.576-1.976-1.265-1.335-1.898-2.955-1.898-4.862 0-1.924.633-3.545 1.898-4.862 1.266-1.317 2.791-1.976 4.576-1.976 1.976 0 3.493.728 4.55 2.184V24Zm-7.046 9.49c.78.78 1.76 1.17 2.938 1.17 1.179 0 2.158-.39 2.938-1.17.78-.797 1.17-1.794 1.17-2.99 0-1.196-.39-2.184-1.17-2.964-.78-.797-1.759-1.196-2.938-1.196-1.178 0-2.158.399-2.938 1.196-.78.78-1.17 1.768-1.17 2.964s.39 2.193 1.17 2.99ZM194.081 37V18.02h2.808V37h-2.808Z" fill="#1271D9"/><path d="M32 38 16.5 12 1 38" stroke="#32439D" stroke-width="2" stroke-linecap="round"/><path d="M32 38 16.5 12 1 38" stroke="url(#a)" stroke-opacity=".7" stroke-width="2" stroke-linecap="round"/><path d="m25 38-8.5-13L8 38" stroke="#32439D" stroke-width="2" stroke-linecap="round"/><path d="m25 38-8.5-13L8 38" stroke="url(#b)" stroke-opacity=".7" stroke-width="2" stroke-linecap="round"/></g></symbol><symbol id="Vector-star"><g fill="none"><g filter="url(#a)"><path d="M37 12.248H23.85L19.773 0l-4.077 12.248H2.546l10.623 7.559L9.15 32l10.624-7.559L30.396 32 26.32 19.752 37 12.248Z" fill="#FFCE31"/></g></g></symbol><symbol id="arrow-down"><g fill="none"><path d="M1.141 1.135A.508.508 0 0 1 1.487 1c.129 0 .253.048.345.134m-.69 0 11.716-.001A.508.508 0 0 0 12.512 1a.508.508 0 0 0-.345.134m-11.026 0a.446.446 0 0 0-.141.32.427.427 0 0 0 .141.319v-.638Zm.69 0L7 5.917M1.832 1.135l.102-.11A.658.658 0 0 0 1.487.85a.658.658 0 0 0-.448.174.596.596 0 0 0-.189.429.577.577 0 0 0 .189.428l5.498 5.089a.682.682 0 0 0 .925 0l5.498-5.087a.595.595 0 0 0 .14-.196l-.137-.06.137.06a.577.577 0 0 0 0-.47l-.137.062.137-.061a.595.595 0 0 0-.14-.196.658.658 0 0 0-.448-.173.658.658 0 0 0-.447.174l-.048.044v.001m-10.185.066.102-.11 5.065 4.687m0 .204 5.168-4.781M7 5.916l-.101-.11.101-.094m0 .204.102-.11L7 5.712m5.168-4.577h-.15v-.066m.15.066v-.001l-.102-.11-.048.045M7 5.712l5.018-4.643" fill="#32439D" stroke="#32439D" stroke-width=".3"/></g></symbol><symbol id="arrow-up"><g fill="none"><path d="m18.174 32.953 10.28-10.02 10.279 10.02a.983.983 0 0 0 1.374 0 .935.935 0 0 0 0-1.337L29.17 20.954a1.029 1.029 0 0 0-1.435 0L16.8 31.614a.937.937 0 0 0 0 1.34.983.983 0 0 0 1.374 0v-.001Z" fill="url(#a)"/><circle cx="27.5" cy="27.5" r="26.5" stroke="url(#b)" stroke-width="2"/></g></symbol><symbol id="eye"><g fill="none"><path d="M8.464 4.692c0 .484-.206.948-.572 1.29a2.028 2.028 0 0 1-1.382.534 2.028 2.028 0 0 1-1.382-.534 1.765 1.765 0 0 1-.573-1.29c0-.484.206-.948.573-1.29a2.028 2.028 0 0 1 1.382-.534c.518 0 1.015.192 1.382.534.366.342.572.806.572 1.29Z" fill="#fff"/><path d="M.255 4.692S2.601.679 6.51.679s6.254 4.013 6.254 4.013S10.42 8.705 6.51 8.705C2.6 8.705.255 4.692.255 4.692ZM6.51 7.246c.725 0 1.421-.27 1.935-.748a2.47 2.47 0 0 0 .801-1.806 2.47 2.47 0 0 0-.801-1.806 2.839 2.839 0 0 0-1.935-.748c-.726 0-1.422.27-1.935.748a2.47 2.47 0 0 0-.801 1.806c0 .677.288 1.327.801 1.806.513.479 1.21.748 1.935.748Z" fill="#fff"/></g></symbol><symbol id="facebook"><g fill="none"><path d="M22.874 14.267h.5V10.22h-3.28c-2.628 0-4.476 2.242-4.476 4.879v1.183h-2.976v3.863h2.976v8.594H19.9v-8.594h2.868l.075-.41.526-2.862.108-.59H19.9v-1.508c0-.184.059-.332.127-.424a.27.27 0 0 1 .087-.085h2.761ZM.5 19.48C.5 9.543 8.556 1.487 18.494 1.487c9.937 0 17.993 8.056 17.993 17.993 0 9.938-8.056 17.994-17.993 17.994C8.556 37.474.5 29.418.5 19.48Z" stroke="#fff"/></g></symbol><symbol id="logo"><path d="M38.808 26.232c-1.882 0-3.443-.62-4.681-1.858-1.24-1.25-1.859-2.793-1.859-4.628 0-1.834.62-3.37 1.858-4.61 1.24-1.25 2.8-1.876 4.682-1.876a6.27 6.27 0 0 1 3.127.804 5.827 5.827 0 0 1 2.251 2.18l-1.787 1.037a3.616 3.616 0 0 0-1.465-1.466c-.631-.369-1.34-.554-2.126-.554-1.334 0-2.418.423-3.252 1.269-.822.846-1.233 1.918-1.233 3.216 0 1.299.411 2.37 1.233 3.216.834.846 1.918 1.27 3.252 1.27.786 0 1.5-.18 2.144-.537a3.61 3.61 0 0 0 1.447-1.483l1.787 1.018c-.524.918-1.269 1.65-2.233 2.198-.953.536-2.002.804-3.145.804Zm8.977-7.665c.488-1.108 1.406-1.662 2.752-1.662v2.09c-.739-.047-1.382.132-1.93.537-.548.393-.822 1.048-.822 1.965V26h-1.93v-8.934h1.93v1.501Zm10.373-1.5h2.055l-3.43 9.219c-.858 2.31-2.311 3.407-4.36 3.288v-1.805c.607.036 1.096-.095 1.465-.393.37-.286.673-.739.911-1.358l.09-.179-3.788-8.773h2.108l2.662 6.486 2.287-6.486Zm8.319-.233c1.226 0 2.275.458 3.144 1.376.87.905 1.305 2.013 1.305 3.323 0 1.322-.435 2.436-1.305 3.341-.87.906-1.918 1.358-3.144 1.358-1.359 0-2.4-.5-3.127-1.5v4.842h-1.93V17.066h1.93v1.287c.726-1.013 1.768-1.52 3.127-1.52Zm-2.323 6.754c.536.536 1.209.804 2.019.804s1.483-.268 2.019-.804c.536-.548.804-1.233.804-2.055 0-.822-.268-1.5-.804-2.037-.536-.548-1.21-.822-2.02-.822s-1.482.274-2.018.822c-.536.536-.804 1.215-.804 2.037 0 .822.268 1.507.804 2.055Zm13.331-4.664H75.27v4.289c0 .369.084.637.25.804.167.155.412.244.733.268.334.012.745.006 1.233-.018V26c-1.477.179-2.537.054-3.18-.375-.644-.441-.965-1.245-.965-2.412v-4.289h-1.644v-1.858h1.644v-1.93l1.93-.571v2.501h2.215v1.858Zm5.6 7.308c-1.31 0-2.423-.452-3.34-1.358-.918-.905-1.376-2.019-1.376-3.341s.458-2.436 1.375-3.341c.918-.906 2.031-1.358 3.342-1.358 1.322 0 2.436.452 3.341 1.358.917.905 1.376 2.019 1.376 3.341s-.459 2.436-1.376 3.341c-.905.906-2.019 1.358-3.341 1.358Zm-1.983-2.68c.536.536 1.197.804 1.984.804.786 0 1.447-.268 1.983-.804s.804-1.209.804-2.019-.268-1.483-.804-2.019-1.197-.804-1.983-.804c-.787 0-1.448.268-1.984.804s-.804 1.209-.804 2.019.268 1.483.804 2.02Z" fill="#32439D"/><path d="M94.283 13.492c1.179 0 2.162.394 2.948 1.18.798.786 1.197 1.763 1.197 2.93 0 1.156-.399 2.132-1.197 2.93-.786.787-1.769 1.18-2.948 1.18h-2.555V26h-2.055V13.492h4.61Zm0 6.29c.607 0 1.108-.203 1.5-.608.394-.416.59-.94.59-1.572 0-.631-.196-1.15-.59-1.554-.392-.417-.893-.626-1.5-.626h-2.555v4.36h2.555Zm9.393 6.45c-1.311 0-2.424-.452-3.342-1.358-.917-.905-1.376-2.019-1.376-3.341s.46-2.436 1.376-3.341c.918-.906 2.031-1.358 3.342-1.358 1.322 0 2.436.452 3.341 1.358.917.905 1.376 2.019 1.376 3.341s-.459 2.436-1.376 3.341c-.905.906-2.019 1.358-3.341 1.358Zm-1.984-2.68c.536.536 1.197.804 1.984.804.786 0 1.447-.268 1.983-.804s.804-1.209.804-2.019-.268-1.483-.804-2.019-1.197-.804-1.983-.804c-.787 0-1.448.268-1.984.804s-.804 1.209-.804 2.019.268 1.483.804 2.02Zm10.375-4.985c.489-1.108 1.406-1.662 2.752-1.662v2.09c-.739-.047-1.382.132-1.93.537-.548.393-.822 1.048-.822 1.965V26h-1.929v-8.934h1.929v1.501Zm9.39.357h-2.216v4.289c0 .369.084.637.25.804.167.155.411.244.733.268.333.012.744.006 1.233-.018V26c-1.477.179-2.537.054-3.181-.375-.643-.441-.965-1.245-.965-2.412v-4.289h-1.643v-1.858h1.643v-1.93l1.93-.571v2.501h2.216v1.858Zm8.459-1.858h1.93V26h-1.93v-1.287c-.726 1.013-1.769 1.52-3.127 1.52-1.227 0-2.275-.453-3.144-1.359-.87-.917-1.305-2.03-1.305-3.341 0-1.322.435-2.436 1.305-3.341.869-.906 1.917-1.358 3.144-1.358 1.358 0 2.401.5 3.127 1.5v-1.268Zm-4.842 6.522c.536.536 1.209.804 2.019.804s1.483-.268 2.019-.804c.536-.548.804-1.233.804-2.055 0-.822-.268-1.5-.804-2.037-.536-.548-1.209-.822-2.019-.822s-1.483.274-2.019.822c-.536.536-.804 1.215-.804 2.037 0 .822.268 1.507.804 2.055ZM134.095 26V12.957h1.93V26h-1.93Z" fill="#1271D9"/><path d="M22.59 26.465 11.794 8.357 1 26.465" stroke="#32439D" stroke-width="1.374" stroke-linecap="round"/><path d="M22.59 26.465 11.794 8.357 1 26.465" stroke="url(#a)" stroke-opacity=".7" stroke-width="1.374" stroke-linecap="round"/><path d="m17.715 26.464-5.92-9.053-5.92 9.053" stroke="#32439D" stroke-width="1.374" stroke-linecap="round"/><path d="m17.715 26.464-5.92-9.053-5.92 9.053" stroke="url(#b)" stroke-opacity=".7" stroke-width="1.374" stroke-linecap="round"/></symbol><symbol id="menu"><g fill="none"><path stroke="#fff" stroke-width="1.291" stroke-linecap="round" d="M.645 1.355h19.362M.645 7.809h19.362M.645 14.263h19.362"/></g></symbol><symbol id="star-rate"/><symbol id="star"><g style="enable-background:new 0 0 18 20"><path d="M11.2 7.5 9 0 6.8 7.5H0l5.6 4.4L3.4 20 9 14.9l5.6 5.1-2.3-8.1L18 7.5h-6.8z" style="fill:#ffce31"/></g></symbol><symbol id="telegram"><g fill="none"><path d="m28.066 12.774.056-.266-.01-.01c.074-.603-.05-1.138-.418-1.496-.429-.418-1.038-.45-1.57-.258l-.011.004-17.83 6.876H8.28c-.339.133-.624.29-.836.477-.21.185-.388.434-.415.742-.028.324.12.595.324.786.196.184.46.316.75.407h.001l4.564 1.425.22.069.195-.123 8.282-5.214-6.287 5.68-.15.136-.014.2-.328 4.707-.037.534h.536c.32 0 .579-.072.804-.203.2-.116.353-.27.467-.383l.011-.012 1.923-1.851 4.283 3.157.024.018.027.015c.48.271 1.022.413 1.519.188.495-.224.76-.728.886-1.298v-.004l3.036-14.303ZM.5 18.494C.5 8.553 8.553.5 18.493.5c9.94 0 17.994 8.054 17.994 17.993 0 9.94-8.053 17.994-17.994 17.994C8.554 36.487.5 28.433.5 18.493Z" stroke="#fff"/></g></symbol><symbol id="twitter"><g fill="none"><path d="M18.236 16.453a9.854 9.854 0 0 1-6.532-3.574l-.456-.56-.364.624a4.14 4.14 0 0 0-.028 4.125l-.564-.312v.893a4.145 4.145 0 0 0 1.329 3.04l-.285-.054.26.802a4.15 4.15 0 0 0 2.562 2.636 6.805 6.805 0 0 1-3.208.797c-.28 0-.55-.013-.808-.045l-.332.917a10.778 10.778 0 0 0 5.854 1.717l2.572-11.006Zm0 0a4.142 4.142 0 0 1 6.953-3.32 6.813 6.813 0 0 0 1.898-.767l1.135-.673-.405 1.256c-.106.331-.253.645-.435.935.083-.033.166-.068.248-.104l1.575-.699-.956 1.434a7.884 7.884 0 0 1-1.725 1.852l.002.226c0 5.03-3.828 10.866-10.861 10.866l2.57-11.006ZM.5 19.467C.5 9.53 8.556 1.474 18.494 1.474c9.937 0 17.993 8.056 17.993 17.993 0 9.938-8.056 17.994-17.993 17.994C8.556 37.46.5 29.405.5 19.467Z" stroke="#fff"/></g></symbol></svg>